# Blender 4.4.0
# www.blender.org
mtllib Smoke_mesh.mtl
o Smoke_mesh
v -0.734965 -0.102536 0.194994
v -0.727900 -0.249901 0.025184
v -0.739869 -0.154035 0.083110
v -0.566590 -0.419357 0.355494
v -0.589815 -0.316283 0.386290
v -0.611970 -0.146283 0.417037
v -0.586024 -0.444878 0.255000
v -0.651600 -0.316283 0.255000
v -0.700095 -0.154035 0.252997
v -0.613580 -0.471856 0.085000
v -0.701383 -0.310454 0.083110
v -0.720791 -0.215869 0.138517
v -0.392292 -0.408076 0.515520
v -0.423249 -0.316283 0.536326
v -0.460085 -0.146283 0.564127
v -0.398085 -0.581313 0.350260
v -0.451855 -0.470383 0.409544
v -0.508249 -0.316283 0.471290
v -0.545085 -0.146283 0.502037
v -0.426627 -0.605290 0.255000
v -0.511627 -0.529878 0.255000
v -0.457456 -0.631515 0.085000
v -0.542456 -0.556856 0.085000
v -0.230303 -0.092898 0.685152
v -0.299890 -0.439055 0.541321
v -0.299890 -0.316283 0.602939
v -0.292138 -0.148252 0.652848
v -0.299890 -0.605765 0.380203
v -0.299890 -0.524055 0.465203
v -0.299890 -0.671041 0.255000
v -0.232699 -0.746205 0.028420
v -0.293575 -0.718502 0.085052
v -0.067733 -0.238876 0.682757
v -0.126596 -0.148252 0.697278
v -0.129889 -0.472155 0.565067
v -0.126596 -0.303839 0.653600
v -0.181066 -0.206231 0.675911
v -0.129889 -0.629367 0.411346
v -0.129889 -0.557155 0.496346
v -0.065995 -0.744218 0.179373
v -0.125553 -0.716783 0.243624
v -0.125553 -0.758022 0.085052
v -0.179328 -0.736338 0.141753
v -0.734965 -0.018488 0.194994
v -0.738625 0.926458 0.185223
v -0.739210 1.043717 0.186806
v -0.730249 1.156873 0.177185
v -0.746860 0.032394 0.095442
v -0.739551 0.144782 0.045737
v -0.736750 0.766077 0.030520
v -0.760346 0.871362 0.086312
v -0.796901 1.043717 0.085000
v -0.768861 1.213611 0.096324
v -0.608702 0.023717 0.413723
v -0.586096 0.193717 0.382509
v -0.565990 0.293526 0.354871
v -0.568224 1.078958 0.350390
v -0.568224 1.157982 0.350390
v -0.697784 0.032394 0.252997
v -0.648044 0.193717 0.255000
v -0.585357 0.327458 0.255000
v -0.595457 0.735916 0.200252
v -0.647230 0.871362 0.230296
v -0.630890 1.030861 0.284456
v -0.643334 1.214094 0.252900
v -0.721297 0.094845 0.159070
v -0.701037 0.198356 0.095442
v -0.606949 0.376824 0.091569
v -0.591078 0.533717 0.069976
v -0.651168 0.694330 0.098936
v -0.708791 0.813125 0.143853
v -0.718445 1.270207 0.160540
v -0.458348 0.023717 0.565775
v -0.421440 0.193717 0.537710
v -0.392195 0.285411 0.515170
v -0.543348 0.023717 0.498723
v -0.506440 0.193717 0.467509
v -0.450196 0.346135 0.408715
v -0.394864 0.461784 0.349225
v -0.406085 0.767053 0.352811
v -0.440928 0.873717 0.366992
v -0.485003 1.030861 0.379638
v -0.477411 1.214276 0.381386
v -0.516122 0.412458 0.255000
v -0.453690 0.524557 0.256985
v -0.478666 0.694818 0.257614
v -0.525928 0.873717 0.318952
v -0.551745 0.965624 0.338351
v -0.539092 1.271315 0.328614
v -0.549892 0.442229 0.152615
v -0.548409 0.533717 0.154976
v -0.551247 0.622583 0.167353
v -0.232834 0.023717 0.686509
v -0.223402 0.117766 0.683527
v -0.317834 0.023717 0.650775
v -0.287997 0.182146 0.622513
v -0.299890 0.323905 0.541809
v -0.299890 0.408905 0.471345
v -0.289241 0.524557 0.380591
v -0.289241 0.707718 0.361361
v -0.299890 0.873717 0.407082
v -0.299890 1.043717 0.444925
v -0.299890 1.213717 0.441272
v -0.338809 0.575117 0.314975
v -0.338809 0.653719 0.314975
v -0.129889 0.023717 0.704243
v -0.129889 0.121198 0.684713
v -0.129889 0.206198 0.650818
v -0.129889 0.357079 0.565818
v -0.129889 0.442079 0.503264
v -0.129889 0.533717 0.433794
v -0.129889 0.703717 0.381571
v -0.129889 0.873717 0.421508
v -0.129889 1.043717 0.459356
v -0.129889 1.213717 0.446339
v -0.749395 1.352973 0.047206
v -0.606593 1.383717 0.214158
v -0.573605 1.482859 0.183596
v -0.697421 1.399271 0.096324
v -0.600589 1.545202 0.069738
v -0.557058 1.640930 0.002897
v -0.417561 1.383717 0.360832
v -0.387582 1.471078 0.341684
v -0.502561 1.383717 0.299158
v -0.443938 1.533635 0.234327
v -0.386961 1.640151 0.171724
v -0.500294 1.596193 0.116230
v -0.454132 1.659733 0.069738
v -0.299890 1.383717 0.386061
v -0.299890 1.475731 0.344939
v -0.299890 1.560731 0.267949
v -0.299890 1.650582 0.182949
v -0.299890 1.702606 0.085000
v -0.129889 1.383717 0.388106
v -0.129889 1.476514 0.345657
v -0.129889 1.561514 0.273890
v -0.129889 1.657302 0.188890
v -0.129889 1.713815 0.085000
v -0.727900 -0.249901 -0.025184
v -0.739869 -0.154035 -0.083110
v -0.734965 -0.102536 -0.194994
v -0.613580 -0.471856 -0.085000
v -0.701383 -0.310454 -0.083110
v -0.720791 -0.215869 -0.138517
v -0.586024 -0.444878 -0.255000
v -0.651600 -0.316283 -0.255000
v -0.700095 -0.154035 -0.252997
v -0.566590 -0.419357 -0.355494
v -0.589815 -0.316283 -0.386290
v -0.611970 -0.146283 -0.417037
v -0.457456 -0.631515 -0.085000
v -0.542456 -0.556856 -0.085000
v -0.426627 -0.605290 -0.255000
v -0.511627 -0.529878 -0.255000
v -0.398085 -0.581313 -0.350260
v -0.451855 -0.470383 -0.409544
v -0.508249 -0.316283 -0.471290
v -0.545085 -0.146283 -0.502037
v -0.392292 -0.408076 -0.515520
v -0.423249 -0.316283 -0.536326
v -0.460085 -0.146283 -0.564127
v -0.232699 -0.746205 -0.028420
v -0.293575 -0.718502 -0.085052
v -0.299890 -0.671041 -0.255000
v -0.299890 -0.605765 -0.380203
v -0.299890 -0.524055 -0.465203
v -0.299890 -0.439055 -0.541321
v -0.299890 -0.316283 -0.602939
v -0.292138 -0.148252 -0.652848
v -0.230303 -0.092898 -0.685152
v -0.125553 -0.758022 -0.085052
v -0.179328 -0.736338 -0.141753
v -0.065995 -0.744218 -0.179373
v -0.125553 -0.716783 -0.243624
v -0.129889 -0.629367 -0.411346
v -0.129889 -0.557155 -0.496346
v -0.129889 -0.472155 -0.565067
v -0.126596 -0.303839 -0.653600
v -0.181066 -0.206231 -0.675911
v -0.067733 -0.238876 -0.682757
v -0.126596 -0.148252 -0.697278
v -0.746860 0.032394 -0.095442
v -0.739551 0.144782 -0.045737
v -0.756827 0.739575 -0.085000
v -0.816174 0.873717 -0.085000
v -0.857681 1.043717 -0.085000
v -0.849231 1.213717 -0.085000
v -0.734965 -0.018488 -0.194994
v -0.770192 0.725114 -0.255000
v -0.838561 0.873717 -0.255000
v -0.874937 1.043717 -0.255000
v -0.870855 1.213717 -0.255000
v -0.755228 0.743697 -0.425000
v -0.813757 0.873717 -0.425000
v -0.855600 1.043717 -0.425000
v -0.846391 1.213717 -0.425000
v -0.735660 0.770611 -0.535801
v -0.757548 0.875378 -0.593481
v -0.791243 1.043717 -0.595000
v -0.765817 1.206045 -0.604101
v -0.736039 0.933152 -0.692005
v -0.735479 1.043717 -0.691979
v -0.727859 1.144264 -0.683968
v -0.721297 0.094845 -0.159070
v -0.701037 0.198356 -0.095442
v -0.626237 0.363717 -0.085000
v -0.630869 0.533717 -0.085000
v -0.702401 0.654575 -0.085000
v -0.697784 0.032394 -0.252997
v -0.646333 0.193717 -0.255000
v -0.593133 0.363717 -0.255000
v -0.630911 0.533717 -0.255000
v -0.706424 0.640114 -0.255000
v -0.608702 0.023717 -0.413723
v -0.584385 0.193717 -0.380450
v -0.564718 0.363717 -0.358455
v -0.601727 0.529559 -0.415488
v -0.695223 0.658697 -0.425000
v -0.584646 0.583454 -0.547354
v -0.644561 0.704987 -0.598244
v -0.704475 0.819819 -0.649134
v -0.715475 1.257597 -0.666834
v -0.591142 0.752695 -0.707034
v -0.644641 0.875378 -0.734503
v -0.628848 1.038882 -0.788663
v -0.640147 1.203917 -0.759682
v -0.564820 1.092325 -0.857558
v -0.564820 1.150238 -0.857558
v -0.543348 0.023717 -0.498723
v -0.509277 0.193717 -0.465450
v -0.504647 0.363717 -0.443455
v -0.533478 0.470120 -0.465814
v -0.458348 0.023717 -0.565775
v -0.424277 0.193717 -0.539852
v -0.419647 0.363717 -0.537669
v -0.473134 0.534713 -0.599777
v -0.526124 0.639362 -0.660687
v -0.412790 0.599305 -0.697209
v -0.463879 0.706529 -0.758788
v -0.517837 0.873717 -0.824125
v -0.545408 0.978992 -0.845133
v -0.534628 1.263571 -0.835396
v -0.401635 0.773695 -0.859982
v -0.432837 0.873717 -0.872468
v -0.481200 1.038882 -0.884088
v -0.474733 1.209630 -0.885892
v -0.317834 0.023717 -0.650775
v -0.287997 0.182146 -0.624226
v -0.299890 0.363717 -0.601624
v -0.299890 0.486608 -0.652674
v -0.232834 0.023717 -0.686509
v -0.223402 0.117766 -0.683527
v -0.299890 0.571608 -0.715974
v -0.299890 0.675754 -0.800974
v -0.299890 0.760754 -0.867665
v -0.299890 0.873717 -0.907624
v -0.299890 1.043717 -0.945269
v -0.299890 1.213717 -0.941701
v -0.129889 0.206811 -0.651937
v -0.129889 0.363717 -0.639172
v -0.129889 0.467533 -0.667235
v -0.129889 0.023717 -0.704243
v -0.129889 0.121811 -0.684713
v -0.129889 0.552533 -0.728823
v -0.129889 0.669672 -0.813823
v -0.129889 0.754672 -0.869830
v -0.129889 0.873717 -0.920469
v -0.129889 1.043717 -0.959687
v -0.129889 1.213717 -0.946682
v -0.776136 1.399271 -0.070123
v -0.742437 1.492054 -0.116872
v -0.814700 1.383717 -0.255000
v -0.750413 1.502662 -0.255000
v -0.774236 1.397943 -0.437946
v -0.741374 1.490640 -0.389910
v -0.748292 1.350761 -0.553501
v -0.723504 1.466307 -0.003538
v -0.673490 1.550719 -0.070123
v -0.576680 1.656243 -0.085000
v -0.679211 1.587662 -0.255000
v -0.594211 1.669887 -0.255000
v -0.722237 1.464094 -0.503244
v -0.671056 1.549871 -0.437946
v -0.574587 1.654575 -0.425000
v -0.692513 1.397943 -0.604101
v -0.596594 1.543424 -0.578562
v -0.555609 1.639455 -0.510936
v -0.601408 1.383717 -0.719469
v -0.569662 1.479895 -0.690562
v -0.469890 1.710800 -0.085000
v -0.469890 1.731854 -0.255000
v -0.469890 1.708346 -0.425000
v -0.469890 1.603622 -0.637032
v -0.469890 1.662099 -0.552032
v -0.474733 1.399097 -0.812629
v -0.469890 1.518622 -0.729240
v -0.421295 1.352684 -0.872982
v -0.299890 1.763257 -0.085000
v -0.299890 1.782963 -0.255000
v -0.299890 1.761009 -0.425000
v -0.380344 1.637412 -0.678441
v -0.314162 1.686264 -0.611064
v -0.365382 1.466017 -0.848424
v -0.316196 1.554573 -0.770389
v -0.267010 1.650547 -0.692355
v -0.305185 1.399097 -0.880370
v -0.252048 1.471734 -0.852095
v -0.129889 1.773703 -0.085000
v -0.129889 1.794568 -0.255000
v -0.129889 1.771337 -0.425000
v -0.129889 1.708117 -0.595000
v -0.051725 1.468096 -0.849654
v -0.116991 1.538527 -0.793062
v -0.129889 1.652875 -0.694087
v -0.116991 1.400344 -0.881365
v -0.165059 1.471734 -0.852095
v 0.040111 -0.243764 0.684713
v 0.040111 -0.146283 0.704243
v 0.040111 -0.479645 0.565818
v 0.040111 -0.328764 0.650818
v 0.040111 -0.628994 0.418861
v 0.040111 -0.564645 0.503861
v -0.018073 -0.744218 0.179373
v 0.039200 -0.717492 0.243624
v 0.039200 -0.756647 0.083168
v 0.095260 -0.738016 0.138614
v 0.133623 -0.240332 0.683527
v 0.143055 -0.146283 0.686509
v 0.210111 -0.446428 0.541809
v 0.198218 -0.304712 0.622513
v 0.228055 -0.146283 0.650775
v 0.210111 -0.601309 0.383978
v 0.210111 -0.531428 0.468978
v 0.210111 -0.668167 0.255000
v 0.133369 -0.743913 0.025280
v 0.198066 -0.717517 0.083168
v 0.302416 -0.407920 0.515170
v 0.331661 -0.316283 0.537710
v 0.387968 -0.147204 0.562055
v 0.300646 -0.575868 0.345275
v 0.358198 -0.468400 0.406740
v 0.416661 -0.316283 0.467509
v 0.449872 -0.204484 0.495140
v 0.330135 -0.601530 0.255000
v 0.415135 -0.526859 0.255000
v 0.387809 -0.622021 0.079049
v 0.449608 -0.554454 0.131748
v 0.483191 -0.091150 0.522391
v 0.476211 -0.415547 0.354871
v 0.501585 -0.316283 0.382509
v 0.549584 -0.152065 0.433389
v 0.495578 -0.441859 0.255000
v 0.580004 -0.313215 0.256947
v 0.615977 -0.212980 0.314912
v 0.471888 -0.578857 0.018415
v 0.515480 -0.493186 0.079049
v 0.607990 -0.368047 0.085000
v 0.720111 -0.099826 0.379942
v 0.659833 -0.254503 0.201579
v 0.717944 -0.180939 0.256947
v 0.687826 -0.283047 0.085000
v 0.772826 -0.208361 0.085000
v 0.890111 -0.077300 0.366120
v 0.890111 -0.123657 0.255000
v 0.890111 -0.166208 0.085000
v 0.990134 -0.069612 0.353208
v 1.052125 -0.083492 0.239942
v 1.060111 -0.114298 0.085000
v 1.146970 -0.062862 0.173236
v 1.160798 -0.071451 0.085000
v 0.036817 0.025686 0.697278
v -0.022046 0.116309 0.682757
v 0.091287 0.083665 0.675911
v 0.036817 0.181272 0.653600
v 0.040111 0.353023 0.565067
v 0.040111 0.438023 0.502145
v 0.040111 0.533717 0.442507
v 0.040111 0.703717 0.385566
v 0.040111 0.873717 0.407916
v 0.040111 1.043717 0.430283
v 0.040111 1.213717 0.409705
v 0.140524 -0.029668 0.685152
v 0.202359 0.025686 0.653574
v 0.210111 0.193717 0.610661
v 0.200249 0.375606 0.553339
v 0.257110 0.533717 0.530193
v 0.289211 0.634860 0.515541
v 0.137009 0.440199 0.504408
v 0.172110 0.533717 0.477533
v 0.223571 0.696403 0.451304
v 0.210111 0.873717 0.409029
v 0.222982 1.053309 0.374867
v 0.172744 1.213717 0.360697
v 0.288229 1.116370 0.337142
v 0.257744 1.213717 0.314786
v 0.380111 0.023717 0.585224
v 0.380111 0.193717 0.579122
v 0.380111 0.363717 0.594375
v 0.380111 0.533717 0.603205
v 0.373493 0.696403 0.562067
v 0.425747 0.831984 0.538160
v 0.312414 0.748193 0.497391
v 0.373493 0.882677 0.469815
v 0.380111 1.024459 0.384226
v 0.380111 1.109459 0.322941
v 0.384669 1.217008 0.239896
v 0.444375 1.275869 0.146528
v 0.616794 0.420741 0.685799
v 0.587469 0.533717 0.692880
v 0.589906 0.650611 0.691375
v 0.543959 0.026858 0.537618
v 0.550111 0.193717 0.597447
v 0.556120 0.363932 0.654337
v 0.502469 0.533717 0.668012
v 0.539988 0.705854 0.655289
v 0.544336 0.882677 0.565812
v 0.597153 0.980066 0.527283
v 0.596525 -0.027715 0.484970
v 0.483820 0.945317 0.499651
v 0.555235 1.047726 0.421729
v 0.626649 1.130550 0.343806
v 0.513316 1.115386 0.320113
v 0.562034 1.163511 0.260068
v 0.548090 1.250737 0.087917
v 0.720111 0.397197 0.694692
v 0.720111 0.533717 0.711120
v 0.720111 0.666455 0.696428
v 0.720111 0.070580 0.541305
v 0.720111 0.193717 0.617708
v 0.720111 0.312197 0.671403
v 0.720111 0.751455 0.666853
v 0.720111 0.873717 0.605580
v 0.720111 0.987312 0.533727
v 0.720111 -0.014420 0.464942
v 0.720111 1.072312 0.439509
v 0.720111 1.137948 0.354509
v 0.720111 1.175845 0.255000
v 0.720111 1.222301 0.085000
v 0.890111 0.400156 0.693722
v 0.896587 0.533305 0.697295
v 0.844239 0.650473 0.690529
v 0.890111 0.075111 0.538905
v 0.890111 0.193717 0.614112
v 0.890111 0.315156 0.670206
v 0.957572 0.589697 0.675178
v 0.896587 0.705770 0.662846
v 0.890111 0.873717 0.589607
v 0.890111 0.972967 0.522433
v 0.890111 -0.009889 0.451120
v 0.890111 1.057967 0.437614
v 0.890111 1.137259 0.352614
v 0.890111 1.170031 0.255000
v 0.890111 1.210252 0.085000
v 0.986141 0.424686 0.684505
v 0.986141 0.476363 0.684505
v 0.997120 0.091661 0.525909
v 1.056316 0.200373 0.554860
v 1.049729 0.366298 0.633326
v 1.049729 0.533305 0.645915
v 1.060111 0.703717 0.605053
v 1.045268 0.862279 0.539474
v 0.978707 0.960939 0.512224
v 1.050294 0.031038 0.417285
v 1.110453 0.148144 0.481361
v 1.092040 0.911321 0.476638
v 1.034683 1.028553 0.408959
v 0.977325 1.129632 0.341279
v 1.103467 -0.029585 0.286570
v 1.099442 1.102148 0.255000
v 1.014442 1.141032 0.255000
v 1.138672 1.125842 0.157609
v 1.073247 1.157179 0.094566
v 1.157945 0.261478 0.519733
v 1.180640 0.363717 0.542315
v 1.202354 0.533717 0.556010
v 1.182182 0.703717 0.535166
v 1.152752 0.797988 0.515561
v 1.172727 0.083748 0.368028
v 1.222003 0.204310 0.417667
v 1.265640 0.363717 0.457242
v 1.287354 0.533717 0.478875
v 1.267182 0.703717 0.464023
v 1.218304 0.856279 0.412926
v 1.170522 0.982833 0.363305
v 1.195397 0.025736 0.239942
v 1.291573 0.140176 0.255000
v 1.284570 0.915301 0.255000
v 1.199570 1.017148 0.255000
v 1.258260 0.027692 0.098382
v 1.312777 0.112238 0.163970
v 1.305645 0.944975 0.128910
v 1.229941 1.044291 0.086593
v 1.154238 1.136005 0.044276
v 0.028036 1.379013 0.363293
v -0.036680 1.472121 0.342642
v 0.076654 1.432544 0.319691
v 0.026097 1.545498 0.249668
v -0.024459 1.649110 0.179646
v 0.088874 1.618875 0.149640
v 0.035369 1.681694 0.089784
v 0.138837 1.319210 0.348319
v 0.215627 1.392363 0.257798
v 0.179083 1.505541 0.206358
v 0.292416 1.465516 0.167276
v 0.227176 1.562390 0.101791
v 0.161935 1.662586 0.036307
v 0.331041 1.352182 0.195906
v 0.384384 1.394130 0.100235
v 0.324393 1.505905 0.053942
v 0.490076 1.322744 0.033194
v 1.324322 0.260475 0.353973
v 1.337632 0.363717 0.372242
v 1.351523 0.533717 0.393875
v 1.340417 0.703717 0.379023
v 1.321120 0.801238 0.349215
v 1.343263 0.225176 0.255000
v 1.395344 0.363717 0.255000
v 1.421661 0.533717 0.255000
v 1.392758 0.703717 0.255000
v 1.338288 0.830301 0.255000
v 1.332483 0.087008 0.050637
v 1.369897 0.178829 0.098382
v 1.449409 0.363717 0.085000
v 1.463344 0.533717 0.085000
v 1.432231 0.703717 0.085000
v 1.355474 0.882472 0.077346
v 1.318740 0.962740 0.015577
v 0.039200 -0.756647 -0.083168
v 0.095260 -0.738016 -0.138614
v -0.018073 -0.744218 -0.179373
v 0.039200 -0.717492 -0.243624
v 0.040111 -0.628994 -0.418861
v 0.040111 -0.564645 -0.503861
v 0.040111 -0.479645 -0.565818
v 0.040111 -0.328764 -0.650818
v 0.040111 -0.243764 -0.684713
v 0.040111 -0.146283 -0.704243
v 0.133369 -0.743913 -0.025280
v 0.198066 -0.717517 -0.083168
v 0.210111 -0.668167 -0.255000
v 0.210111 -0.601309 -0.383978
v 0.210111 -0.531428 -0.468978
v 0.210111 -0.446428 -0.541809
v 0.198218 -0.304712 -0.622513
v 0.228055 -0.146283 -0.650775
v 0.133623 -0.240332 -0.683527
v 0.143055 -0.146283 -0.686509
v 0.387809 -0.622021 -0.079049
v 0.449608 -0.554454 -0.131748
v 0.330135 -0.601530 -0.255000
v 0.415135 -0.526859 -0.255000
v 0.300646 -0.575868 -0.345275
v 0.358198 -0.468400 -0.406740
v 0.416661 -0.316283 -0.467509
v 0.449872 -0.204484 -0.495140
v 0.302416 -0.407920 -0.515170
v 0.331661 -0.316283 -0.537710
v 0.387968 -0.147204 -0.562055
v 0.471888 -0.578857 -0.018415
v 0.515480 -0.493186 -0.079049
v 0.607990 -0.368047 -0.085000
v 0.495578 -0.441859 -0.255000
v 0.580004 -0.313215 -0.256947
v 0.615977 -0.212980 -0.314912
v 0.476211 -0.415547 -0.354871
v 0.501585 -0.316283 -0.382509
v 0.549584 -0.152065 -0.433389
v 0.483191 -0.091150 -0.522391
v 0.687826 -0.283047 -0.085000
v 0.772826 -0.208361 -0.085000
v 0.659833 -0.254503 -0.201579
v 0.717944 -0.180939 -0.256947
v 0.720111 -0.099826 -0.379942
v 0.890111 -0.166208 -0.085000
v 0.890111 -0.123657 -0.255000
v 0.890111 -0.077300 -0.366120
v 1.060111 -0.114298 -0.085000
v 1.052125 -0.083492 -0.239942
v 0.990134 -0.069612 -0.353208
v 1.160798 -0.071451 -0.085000
v 1.146970 -0.062862 -0.173236
v 0.091287 0.083665 -0.675911
v 0.036817 0.181763 -0.654496
v 0.040111 0.363717 -0.618625
v 0.040111 0.498228 -0.647439
v 0.036817 0.025686 -0.697278
v -0.022046 0.117127 -0.682757
v 0.040111 0.583228 -0.707384
v 0.045543 0.706838 -0.799030
v 0.105832 0.806163 -0.841872
v -0.007501 0.765585 -0.862869
v 0.045543 0.867185 -0.888941
v 0.040111 1.043717 -0.926767
v 0.040111 1.213717 -0.910339
v 0.202359 0.025686 -0.653574
v 0.210111 0.193717 -0.612170
v 0.210111 0.363717 -0.582747
v 0.195722 0.549232 -0.625766
v 0.242796 0.660010 -0.658807
v 0.140524 -0.029668 -0.685152
v 0.129463 0.616242 -0.682172
v 0.195722 0.711493 -0.715095
v 0.207702 0.867185 -0.803505
v 0.255955 1.043717 -0.825592
v 0.244574 1.213717 -0.815479
v 0.149430 0.919496 -0.867817
v 0.170955 1.043717 -0.875408
v 0.159574 1.213717 -0.866161
v 0.462611 1.292888 -0.502060
v 0.380111 0.023717 -0.585224
v 0.380111 0.193717 -0.580631
v 0.380111 0.363717 -0.596721
v 0.380111 0.533717 -0.626492
v 0.372253 0.711493 -0.653579
v 0.422617 0.873717 -0.651272
v 0.439463 1.043717 -0.647142
v 0.434526 1.227220 -0.597144
v 0.310347 0.773344 -0.687781
v 0.337617 0.873717 -0.712977
v 0.354463 1.043717 -0.740592
v 0.343755 1.213717 -0.730478
v 0.590006 1.263255 -0.085000
v 0.583708 1.245163 -0.255000
v 0.596525 -0.027715 -0.484970
v 0.606591 1.099648 -0.468005
v 0.544135 1.215679 -0.428365
v 0.543959 0.026858 -0.537618
v 0.550111 0.193717 -0.597447
v 0.556120 0.363932 -0.654337
v 0.502469 0.533717 -0.668012
v 0.539988 0.705854 -0.660841
v 0.550111 0.873717 -0.618009
v 0.549999 1.043276 -0.564556
v 0.493257 1.179555 -0.541906
v 0.616794 0.420741 -0.685799
v 0.587469 0.533717 -0.692880
v 0.589906 0.650611 -0.691375
v 0.720111 1.229678 -0.085000
v 0.720111 1.183963 -0.255000
v 0.720111 -0.014420 -0.464942
v 0.720111 1.078171 -0.440254
v 0.720111 1.138689 -0.355254
v 0.720111 0.070580 -0.541305
v 0.720111 0.193717 -0.617708
v 0.720111 0.312197 -0.671403
v 0.720111 0.751455 -0.666853
v 0.720111 0.873717 -0.609741
v 0.720111 0.993171 -0.537887
v 0.720111 0.397197 -0.694692
v 0.720111 0.533717 -0.711120
v 0.720111 0.666455 -0.696428
v 0.890111 1.210252 -0.085000
v 0.890111 1.164831 -0.255000
v 0.890111 -0.009889 -0.451120
v 0.890111 1.059139 -0.430210
v 0.890111 1.132060 -0.345210
v 0.890111 0.075111 -0.538905
v 0.890111 0.193717 -0.614112
v 0.890111 0.315156 -0.670206
v 0.957572 0.589697 -0.675178
v 0.896587 0.705770 -0.662846
v 0.890111 0.873717 -0.590675
v 0.890111 0.974139 -0.523502
v 0.890111 0.400156 -0.693722
v 0.896587 0.533305 -0.697295
v 0.844239 0.650473 -0.690529
v 1.138672 1.125842 -0.157609
v 1.073247 1.157179 -0.094566
v 1.103467 -0.029585 -0.286570
v 1.099442 1.102147 -0.255000
v 1.014442 1.141032 -0.255000
v 1.050294 0.031038 -0.417285
v 1.110453 0.148144 -0.481361
v 1.092040 0.911321 -0.476638
v 1.034683 1.028553 -0.408959
v 0.977325 1.129632 -0.341279
v 0.997120 0.091661 -0.525909
v 1.056316 0.200373 -0.554860
v 1.049729 0.366298 -0.633326
v 1.049729 0.533305 -0.645915
v 1.060111 0.703717 -0.605053
v 1.045268 0.862279 -0.539474
v 0.978707 0.960939 -0.512224
v 0.986141 0.424686 -0.684505
v 0.986141 0.476363 -0.684505
v 1.258260 0.027692 -0.098382
v 1.312777 0.112238 -0.163970
v 1.305645 0.944975 -0.128910
v 1.229941 1.044291 -0.086593
v 1.154238 1.136005 -0.044276
v 1.195397 0.025736 -0.239942
v 1.291573 0.140176 -0.255000
v 1.284570 0.915301 -0.255000
v 1.199570 1.017148 -0.255000
v 1.172727 0.083748 -0.368028
v 1.222003 0.204310 -0.417667
v 1.265640 0.363717 -0.457242
v 1.287354 0.533717 -0.478875
v 1.267182 0.703717 -0.464023
v 1.218304 0.856279 -0.412926
v 1.170522 0.982833 -0.363305
v 1.157945 0.261478 -0.519733
v 1.180640 0.363717 -0.542315
v 1.202354 0.533717 -0.556010
v 1.182182 0.703717 -0.535166
v 1.152752 0.797987 -0.515561
v 0.040111 1.746825 -0.085000
v 0.040111 1.762305 -0.255000
v 0.040111 1.744996 -0.425000
v 0.082269 1.615615 -0.657191
v 0.031406 1.678844 -0.598315
v 0.040111 1.436195 -0.832095
v 0.031406 1.556856 -0.737533
v -0.031064 1.645765 -0.686428
v 0.040111 1.351195 -0.872596
v 0.276797 1.620923 -0.085000
v 0.191797 1.681821 -0.085000
v 0.287647 1.631790 -0.255000
v 0.202647 1.688734 -0.255000
v 0.275380 1.619584 -0.425000
v 0.190380 1.680896 -0.425000
v 0.287045 1.459016 -0.672291
v 0.223945 1.560239 -0.608075
v 0.160846 1.661869 -0.543858
v 0.210650 1.385829 -0.764588
v 0.173711 1.502282 -0.713140
v 0.134255 1.312642 -0.855489
v 0.436945 1.430881 -0.085000
v 0.351945 1.535923 -0.085000
v 0.449228 1.439305 -0.255000
v 0.364228 1.546790 -0.255000
v 0.439970 1.387873 -0.437236
v 0.350560 1.534584 -0.425000
v 0.360871 1.394896 -0.607375
v 0.323382 1.504862 -0.558958
v 0.322271 1.345683 -0.702703
v 0.505006 1.345881 -0.085000
v 0.498708 1.354305 -0.255000
v 0.481680 1.333976 -0.388726
v 1.332483 0.087008 -0.050637
v 1.369897 0.178829 -0.098382
v 1.449409 0.363717 -0.085000
v 1.463344 0.533717 -0.085000
v 1.432231 0.703717 -0.085000
v 1.355474 0.882472 -0.077346
v 1.318740 0.962740 -0.015577
v 1.343263 0.225176 -0.255000
v 1.395344 0.363717 -0.255000
v 1.421661 0.533717 -0.255000
v 1.392758 0.703717 -0.255000
v 1.338288 0.830301 -0.255000
v 1.324322 0.260475 -0.353973
v 1.337632 0.363717 -0.372242
v 1.351523 0.533717 -0.393875
v 1.340417 0.703717 -0.379023
v 1.321119 0.801238 -0.349215
vn -0.9526 -0.0817 0.2930
vn -0.9645 -0.2613 0.0393
vn -0.9878 -0.1301 0.0856
vn -0.7072 -0.5082 0.4916
vn -0.7763 -0.3221 0.5418
vn -0.8256 -0.1053 0.5544
vn -0.7779 -0.5484 0.3067
vn -0.8815 -0.3409 0.3266
vn -0.9047 -0.1481 0.3995
vn -0.8209 -0.5596 0.1136
vn -0.9136 -0.3852 0.1304
vn -0.9402 -0.2605 0.2193
vn -0.4867 -0.4859 0.7260
vn -0.5200 -0.3308 0.7875
vn -0.5406 -0.1300 0.8312
vn -0.4960 -0.7057 0.5059
vn -0.5579 -0.5770 0.5965
vn -0.6304 -0.3429 0.6965
vn -0.6876 -0.1171 0.7165
vn -0.5447 -0.7740 0.3229
vn -0.6647 -0.6711 0.3285
vn -0.5660 -0.8165 0.1134
vn -0.7095 -0.6953 0.1150
vn -0.2775 -0.0829 0.9571
vn -0.3273 -0.5301 0.7822
vn -0.3438 -0.3428 0.8743
vn -0.3895 -0.1618 0.9067
vn -0.3150 -0.7728 0.5510
vn -0.3348 -0.6518 0.6805
vn -0.3255 -0.8836 0.3365
vn -0.2591 -0.9640 0.0588
vn -0.3735 -0.9170 0.1401
vn -0.0655 -0.2793 0.9580
vn -0.1131 -0.1319 0.9848
vn -0.1373 -0.5469 0.8259
vn -0.1449 -0.3816 0.9129
vn -0.2301 -0.2564 0.9388
vn -0.1255 -0.8232 0.5537
vn -0.1432 -0.6909 0.7086
vn -0.0431 -0.9637 0.2635
vn -0.1255 -0.9191 0.3735
vn -0.0938 -0.9891 0.1139
vn -0.2108 -0.9475 0.2404
vn -0.9478 0.0590 0.3132
vn -0.7710 -0.2117 0.6007
vn -0.7857 -0.0071 0.6186
vn -0.7778 0.1257 0.6158
vn -0.9882 0.0888 0.1247
vn -0.9422 0.3238 0.0865
vn -0.8261 -0.4639 0.3199
vn -0.8651 -0.3149 0.3904
vn -0.9187 -0.0346 0.3934
vn -0.8669 0.1953 0.4587
vn -0.8234 0.1280 0.5528
vn -0.7764 0.3141 0.5465
vn -0.7128 0.4786 0.5127
vn -0.5581 -0.0416 0.8287
vn -0.5735 0.1163 0.8109
vn -0.8912 0.1566 0.4257
vn -0.8706 0.3326 0.3625
vn -0.7875 0.5013 0.3584
vn -0.5887 -0.4247 0.6878
vn -0.6208 -0.3206 0.7154
vn -0.6486 -0.0774 0.7572
vn -0.6879 0.2170 0.6926
vn -0.9136 0.2660 0.3076
vn -0.8936 0.4080 0.1870
vn -0.9136 0.3218 0.2485
vn -0.9032 -0.1532 0.4010
vn -0.7547 -0.4489 0.4785
vn -0.7223 -0.4431 0.5310
vn -0.7587 0.2838 0.5863
vn -0.5587 0.1218 0.8203
vn -0.5497 0.3369 0.7644
vn -0.5207 0.4739 0.7102
vn -0.6946 0.1356 0.7065
vn -0.6447 0.3404 0.6844
vn -0.5841 0.5270 0.6173
vn -0.5674 0.5123 0.6447
vn -0.3844 -0.3611 0.8496
vn -0.3817 -0.2591 0.8872
vn -0.3803 -0.1108 0.9182
vn -0.4052 0.1749 0.8973
vn -0.7250 0.4849 0.4892
vn -0.6631 0.2045 0.7200
vn -0.5478 -0.3012 0.7805
vn -0.5225 -0.3046 0.7964
vn -0.5269 -0.2170 0.8217
vn -0.5752 0.3153 0.7548
vn -0.8294 0.2944 0.4748
vn -0.8027 -0.0223 0.5960
vn -0.7117 -0.2753 0.6463
vn -0.2955 0.0599 0.9535
vn -0.2606 0.2808 0.9237
vn -0.4765 0.0898 0.8746
vn -0.3696 0.3622 0.8557
vn -0.3534 0.5236 0.7752
vn -0.3847 0.5928 0.7075
vn -0.4464 0.4106 0.7950
vn -0.3275 -0.1582 0.9315
vn -0.1816 -0.2243 0.9574
vn -0.1919 -0.0835 0.9779
vn -0.1692 0.1593 0.9726
vn -0.5920 0.1726 0.7872
vn -0.5533 -0.1735 0.8147
vn -0.0543 0.0691 0.9961
vn -0.0458 0.2989 0.9532
vn -0.0756 0.4565 0.8865
vn -0.1028 0.5429 0.8335
vn -0.1282 0.5944 0.7939
vn -0.1421 0.4314 0.8909
vn -0.0882 0.0195 0.9959
vn -0.0088 -0.2055 0.9786
vn 0.0433 -0.0614 0.9972
vn 0.0732 0.1912 0.9788
vn -0.8541 0.3260 0.4053
vn -0.6352 0.4103 0.6544
vn -0.5904 0.5399 0.5999
vn -0.7495 0.4305 0.5029
vn -0.6259 0.6154 0.4791
vn -0.5494 0.7430 0.3823
vn -0.3910 0.3488 0.8517
vn -0.3289 0.5330 0.7796
vn -0.5623 0.3938 0.7272
vn -0.4384 0.6135 0.6568
vn -0.3349 0.7514 0.5685
vn -0.5218 0.6636 0.5360
vn -0.4015 0.8105 0.4265
vn -0.1102 0.3314 0.9370
vn -0.0939 0.5496 0.8302
vn -0.1275 0.6781 0.7238
vn -0.1474 0.7843 0.6026
vn -0.1592 0.9089 0.3855
vn 0.0673 0.3469 0.9355
vn 0.0569 0.5393 0.8402
vn 0.0581 0.6660 0.7437
vn 0.0507 0.7833 0.6195
vn 0.0461 0.9157 0.3991
vn -0.9645 -0.2613 -0.0393
vn -0.9878 -0.1301 -0.0856
vn -0.9526 -0.0817 -0.2930
vn -0.8209 -0.5596 -0.1136
vn -0.9136 -0.3852 -0.1304
vn -0.9402 -0.2605 -0.2193
vn -0.7779 -0.5484 -0.3067
vn -0.8815 -0.3409 -0.3266
vn -0.9047 -0.1481 -0.3995
vn -0.7072 -0.5082 -0.4916
vn -0.7763 -0.3221 -0.5418
vn -0.8256 -0.1053 -0.5544
vn -0.5660 -0.8165 -0.1134
vn -0.7095 -0.6953 -0.1150
vn -0.5447 -0.7740 -0.3229
vn -0.6647 -0.6711 -0.3285
vn -0.4960 -0.7057 -0.5059
vn -0.5579 -0.5770 -0.5965
vn -0.6304 -0.3429 -0.6965
vn -0.6876 -0.1171 -0.7165
vn -0.4867 -0.4859 -0.7260
vn -0.5200 -0.3308 -0.7875
vn -0.5406 -0.1300 -0.8312
vn -0.2591 -0.9640 -0.0588
vn -0.3735 -0.9170 -0.1401
vn -0.3255 -0.8836 -0.3365
vn -0.3150 -0.7728 -0.5510
vn -0.3348 -0.6518 -0.6805
vn -0.3273 -0.5301 -0.7822
vn -0.3438 -0.3428 -0.8743
vn -0.3895 -0.1618 -0.9067
vn -0.2775 -0.0829 -0.9571
vn -0.0938 -0.9891 -0.1139
vn -0.2108 -0.9475 -0.2404
vn -0.0431 -0.9637 -0.2635
vn -0.1255 -0.9191 -0.3735
vn -0.1255 -0.8232 -0.5537
vn -0.1432 -0.6909 -0.7086
vn -0.1373 -0.5469 -0.8259
vn -0.1449 -0.3816 -0.9129
vn -0.2301 -0.2564 -0.9388
vn -0.0655 -0.2793 -0.9580
vn -0.1131 -0.1319 -0.9848
vn -0.9882 0.0888 -0.1247
vn -0.9422 0.3238 -0.0865
vn -0.8532 -0.4833 0.1961
vn -0.9308 -0.3039 0.2033
vn -0.9701 -0.0776 0.2301
vn -0.9506 0.1888 0.2462
vn -0.9478 0.0590 -0.3132
vn -0.8654 -0.5009 -0.0129
vn -0.9483 -0.3174 -0.0070
vn -0.9957 -0.0929 -0.0067
vn -0.9824 0.1866 -0.0071
vn -0.8384 -0.4992 -0.2191
vn -0.9274 -0.3049 -0.2168
vn -0.9669 -0.0769 -0.2434
vn -0.9473 0.1881 -0.2592
vn -0.8028 -0.4869 -0.3443
vn -0.8549 -0.3242 -0.4050
vn -0.9152 -0.0332 -0.4017
vn -0.8608 0.1925 -0.4711
vn -0.7668 -0.2117 -0.6060
vn -0.7836 -0.0079 -0.6212
vn -0.7767 0.1255 -0.6173
vn -0.9119 0.2686 -0.3102
vn -0.9054 0.3897 -0.1686
vn -0.9801 0.1951 -0.0370
vn -0.9548 -0.2777 0.1057
vn -0.8296 -0.5286 0.1801
vn -0.8898 0.1603 -0.4272
vn -0.8896 0.2844 -0.3575
vn -0.9704 0.0499 -0.2362
vn -0.9160 -0.3888 -0.0994
vn -0.8198 -0.5718 -0.0321
vn -0.8248 0.1316 -0.5500
vn -0.8290 0.2120 -0.5175
vn -0.8952 -0.0606 -0.4415
vn -0.8066 -0.4892 -0.3318
vn -0.7790 -0.5806 -0.2367
vn -0.6648 -0.5839 -0.4660
vn -0.6727 -0.5516 -0.4932
vn -0.6989 -0.4703 -0.5388
vn -0.7536 0.2767 -0.5962
vn -0.5518 -0.4980 -0.6690
vn -0.6089 -0.3408 -0.7163
vn -0.6455 -0.0782 -0.7597
vn -0.6878 0.2170 -0.6927
vn -0.5503 -0.0441 -0.8338
vn -0.5655 0.1185 -0.8162
vn -0.6995 0.1345 -0.7019
vn -0.7143 0.1778 -0.6769
vn -0.7626 -0.1367 -0.6322
vn -0.7124 -0.4512 -0.5375
vn -0.5612 0.1161 -0.8195
vn -0.5851 0.1510 -0.7968
vn -0.6039 -0.1775 -0.7770
vn -0.5268 -0.5425 -0.6544
vn -0.5171 -0.5824 -0.6272
vn -0.3558 -0.6056 -0.7118
vn -0.4316 -0.5485 -0.7161
vn -0.5216 -0.3225 -0.7899
vn -0.5220 -0.2176 -0.8247
vn -0.5762 0.3175 -0.7531
vn -0.3423 -0.4593 -0.8197
vn -0.3797 -0.2710 -0.8845
vn -0.3723 -0.1130 -0.9212
vn -0.3976 0.1746 -0.9008
vn -0.4744 0.0847 -0.8762
vn -0.3824 0.1910 -0.9040
vn -0.3353 -0.1529 -0.9296
vn -0.2643 -0.4895 -0.8310
vn -0.2941 0.0582 -0.9540
vn -0.2585 0.2734 -0.9265
vn -0.2187 -0.6055 -0.7652
vn -0.1744 -0.6176 -0.7669
vn -0.1364 -0.4851 -0.8638
vn -0.1512 -0.2575 -0.9544
vn -0.1843 -0.0848 -0.9792
vn -0.1582 0.1601 -0.9743
vn -0.0659 0.2613 -0.9630
vn -0.0427 -0.0845 -0.9955
vn 0.0102 -0.4315 -0.9020
vn -0.0544 0.0687 -0.9962
vn -0.0459 0.2928 -0.9551
vn 0.0409 -0.5937 -0.8037
vn 0.0488 -0.5977 -0.8002
vn 0.0444 -0.4843 -0.8738
vn 0.0445 -0.2866 -0.9570
vn 0.0604 -0.0749 -0.9954
vn 0.0731 0.1883 -0.9794
vn -0.8826 0.3944 0.2560
vn -0.8142 0.5547 0.1714
vn -0.9231 0.3845 -0.0071
vn -0.8236 0.5671 -0.0072
vn -0.8796 0.3934 -0.2673
vn -0.8128 0.5534 -0.1821
vn -0.8470 0.3221 -0.4228
vn -0.7643 0.5203 0.3810
vn -0.7234 0.6360 0.2685
vn -0.5771 0.7855 0.2238
vn -0.7239 0.6899 -0.0073
vn -0.5922 0.8057 -0.0070
vn -0.7616 0.5185 -0.3887
vn -0.7220 0.6332 -0.2788
vn -0.5789 0.7821 -0.2308
vn -0.7431 0.4256 -0.5163
vn -0.6227 0.6119 -0.4876
vn -0.5548 0.7348 -0.3902
vn -0.6374 0.4030 -0.6567
vn -0.5921 0.5354 -0.6023
vn -0.3575 0.9094 0.2125
vn -0.3701 0.9290 -0.0066
vn -0.3564 0.9079 -0.2205
vn -0.4548 0.7000 -0.5505
vn -0.3952 0.8228 -0.4084
vn -0.4966 0.4255 -0.7565
vn -0.4726 0.5905 -0.6542
vn -0.3626 0.3051 -0.8806
vn -0.1745 0.9589 0.2236
vn -0.1777 0.9841 -0.0066
vn -0.1723 0.9555 -0.2395
vn -0.3200 0.7414 -0.5899
vn -0.1841 0.8782 -0.4415
vn -0.2846 0.5370 -0.7941
vn -0.1957 0.6575 -0.7276
vn -0.0836 0.7780 -0.6227
vn -0.1352 0.3798 -0.9151
vn -0.0262 0.5466 -0.8370
vn 0.0515 0.9730 0.2249
vn 0.0529 0.9986 -0.0063
vn 0.0474 0.9694 -0.2409
vn 0.0418 0.9129 -0.4060
vn 0.1777 0.5275 -0.8308
vn 0.0835 0.6376 -0.7658
vn 0.0538 0.7777 -0.6263
vn 0.0779 0.3747 -0.9239
vn 0.0035 0.5358 -0.8443
vn 0.0458 -0.2989 0.9532
vn 0.0543 -0.0691 0.9961
vn 0.0964 -0.5500 0.8296
vn 0.0742 -0.4576 0.8860
vn 0.1086 -0.8335 0.5418
vn 0.1048 -0.6995 0.7069
vn 0.0433 -0.9649 0.2592
vn 0.1290 -0.9197 0.3708
vn 0.1046 -0.9895 0.0996
vn 0.2243 -0.9493 0.2203
vn 0.2606 -0.2808 0.9237
vn 0.2947 -0.0606 0.9537
vn 0.3562 -0.5278 0.7711
vn 0.3640 -0.3662 0.8564
vn 0.4510 -0.1115 0.8856
vn 0.3541 -0.7785 0.5182
vn 0.3726 -0.6597 0.6526
vn 0.3491 -0.8730 0.3405
vn 0.2550 -0.9662 0.0393
vn 0.3707 -0.9193 0.1325
vn 0.5236 -0.4806 0.7035
vn 0.5362 -0.3572 0.7648
vn 0.4849 -0.2228 0.8457
vn 0.5185 -0.7076 0.4801
vn 0.5717 -0.5845 0.5758
vn 0.6054 -0.3951 0.6909
vn 0.5982 -0.3500 0.7209
vn 0.5322 -0.7726 0.3462
vn 0.6390 -0.6767 0.3657
vn 0.5331 -0.8305 0.1615
vn 0.6733 -0.6784 0.2939
vn 0.4711 -0.3128 0.8248
vn 0.6732 -0.5339 0.5117
vn 0.6921 -0.4302 0.5796
vn 0.5418 -0.4913 0.6820
vn 0.7328 -0.5851 0.3472
vn 0.7342 -0.5465 0.4029
vn 0.5960 -0.6082 0.5243
vn 0.7059 -0.7027 0.0886
vn 0.7885 -0.5915 0.1685
vn 0.7644 -0.6262 0.1533
vn 0.2813 -0.7344 0.6177
vn 0.6439 -0.6696 0.3702
vn 0.4416 -0.7939 0.4180
vn 0.6852 -0.7099 0.1627
vn 0.4884 -0.8608 0.1430
vn 0.2006 -0.8160 0.5422
vn 0.2531 -0.9155 0.3128
vn 0.3070 -0.9447 0.1155
vn 0.3267 -0.8064 0.4929
vn 0.3922 -0.8595 0.3277
vn 0.3300 -0.9386 0.1001
vn 0.5460 -0.7896 0.2801
vn 0.5628 -0.8196 0.1078
vn 0.1122 0.1316 0.9849
vn 0.0655 0.2793 0.9580
vn 0.2180 0.2459 0.9445
vn 0.1148 0.3610 0.9255
vn 0.0382 0.5072 0.8610
vn -0.0423 0.5494 0.8345
vn -0.1238 0.3995 0.9084
vn -0.1190 0.1116 0.9866
vn 0.0295 -0.0701 0.9971
vn 0.1925 0.0223 0.9811
vn 0.2465 0.1987 0.9485
vn 0.2753 0.0815 0.9579
vn 0.3242 0.1182 0.9386
vn 0.1552 0.2286 0.9611
vn -0.1380 0.3024 0.9431
vn -0.4569 0.2304 0.8592
vn -0.5410 0.2504 0.8029
vn -0.2047 0.4642 0.8618
vn -0.3527 0.3284 0.8762
vn -0.3911 0.2220 0.8932
vn -0.1579 0.1720 0.9723
vn 0.1463 0.2558 0.9556
vn 0.3868 0.2445 0.8892
vn 0.2703 0.4218 0.8655
vn 0.4389 0.3585 0.8239
vn 0.2909 -0.0587 0.9549
vn 0.0319 -0.0278 0.9991
vn -0.2443 -0.0264 0.9693
vn -0.4398 0.0957 0.8930
vn -0.5117 0.2790 0.8126
vn -0.4671 0.4094 0.7837
vn -0.5158 0.2895 0.8063
vn -0.3840 0.4180 0.8233
vn -0.1583 0.5549 0.8167
vn 0.0902 0.6014 0.7939
vn 0.3672 0.5903 0.7188
vn 0.4983 0.6687 0.5518
vn -0.2007 -0.1879 0.9615
vn -0.2343 -0.0275 0.9718
vn -0.2138 0.1918 0.9579
vn 0.2147 -0.3709 0.9035
vn -0.0764 -0.2885 0.9544
vn -0.2483 -0.2247 0.9423
vn -0.3956 0.0043 0.9184
vn -0.3273 0.3119 0.8920
vn -0.3027 0.4847 0.8207
vn -0.2174 0.6357 0.7407
vn 0.3257 -0.5508 0.7685
vn -0.3791 0.5720 0.7274
vn -0.2265 0.7166 0.6597
vn -0.1532 0.8382 0.5234
vn -0.1032 0.7321 0.6733
vn 0.0299 0.8515 0.5236
vn 0.3639 0.8635 0.3493
vn -0.0628 -0.1924 0.9793
vn -0.0256 -0.0042 0.9997
vn -0.0115 0.2368 0.9715
vn 0.0521 -0.5707 0.8195
vn -0.0334 -0.4322 0.9012
vn -0.0752 -0.3351 0.9392
vn -0.0237 0.4067 0.9133
vn -0.0276 0.4765 0.8788
vn -0.0234 0.6444 0.7643
vn 0.1629 -0.6631 0.7306
vn -0.0437 0.7600 0.6485
vn -0.0470 0.8590 0.5098
vn 0.0123 0.9428 0.3331
vn 0.1008 0.9785 0.1801
vn 0.1147 -0.1933 0.9744
vn 0.1550 0.0670 0.9856
vn 0.1327 0.2148 0.9676
vn 0.1532 -0.6179 0.7712
vn 0.1585 -0.4544 0.8766
vn 0.1569 -0.3624 0.9187
vn 0.3089 0.1969 0.9305
vn 0.2272 0.3230 0.9187
vn 0.1901 0.4627 0.8659
vn 0.1683 0.6259 0.7615
vn 0.1717 -0.7193 0.6732
vn 0.1494 0.7209 0.6767
vn 0.1202 0.8528 0.5082
vn 0.1249 0.9563 0.2644
vn 0.1679 0.9788 0.1175
vn 0.3427 -0.1494 0.9275
vn 0.3479 0.0228 0.9372
vn 0.3566 -0.5894 0.7249
vn 0.4434 -0.4428 0.7793
vn 0.4522 -0.2516 0.8557
vn 0.4639 0.0807 0.8822
vn 0.4059 0.2853 0.8682
vn 0.4004 0.4650 0.7896
vn 0.3174 0.5941 0.7391
vn 0.4521 -0.6658 0.5936
vn 0.5524 -0.5225 0.6496
vn 0.4910 0.5400 0.6836
vn 0.4043 0.6700 0.6226
vn 0.3084 0.8133 0.4934
vn 0.5438 -0.7057 0.4542
vn 0.4965 0.7804 0.3800
vn 0.3284 0.8912 0.3128
vn 0.5429 0.8022 0.2483
vn 0.3413 0.9318 0.1232
vn 0.5928 -0.3755 0.7124
vn 0.6106 -0.2312 0.7574
vn 0.6016 0.0153 0.7987
vn 0.5624 0.2703 0.7814
vn 0.5268 0.4185 0.7399
vn 0.6108 -0.5969 0.5202
vn 0.6556 -0.4641 0.5956
vn 0.7065 -0.2365 0.6670
vn 0.7289 -0.0100 0.6845
vn 0.6846 0.2662 0.6785
vn 0.6285 0.4929 0.6017
vn 0.5833 0.6043 0.5428
vn 0.6469 -0.6568 0.3873
vn 0.7363 -0.5572 0.3839
vn 0.7540 0.5607 0.3422
vn 0.6678 0.6446 0.3722
vn 0.7113 -0.6827 0.1672
vn 0.7670 -0.5683 0.2979
vn 0.7842 0.5789 0.2236
vn 0.7169 0.6813 0.1479
vn 0.5469 0.8355 0.0534
vn 0.2775 0.3801 0.8823
vn 0.1951 0.5310 0.8246
vn 0.3913 0.5038 0.7701
vn 0.3024 0.6310 0.7144
vn 0.2179 0.7575 0.6154
vn 0.3945 0.6941 0.6022
vn 0.2806 0.8466 0.4522
vn 0.4098 0.3342 0.8487
vn 0.4861 0.4544 0.7465
vn 0.4242 0.5976 0.6803
vn 0.5908 0.5429 0.5969
vn 0.5439 0.6740 0.4999
vn 0.4595 0.7953 0.3955
vn 0.5808 0.4258 0.6938
vn 0.6724 0.5672 0.4756
vn 0.6943 0.6263 0.3546
vn 0.6618 0.6700 0.3363
vn 0.7729 -0.3828 0.5061
vn 0.8169 -0.2165 0.5347
vn 0.8434 -0.0110 0.5372
vn 0.8179 0.2470 0.5197
vn 0.7633 0.4416 0.4716
vn 0.8351 -0.4239 0.3507
vn 0.9149 -0.2197 0.3386
vn 0.9398 0.0125 0.3416
vn 0.9196 0.2565 0.2975
vn 0.8340 0.4598 0.3050
vn 0.7983 -0.5951 0.0924
vn 0.8866 -0.4328 0.1634
vn 0.9621 -0.2382 0.1329
vn 0.9913 0.0388 0.1256
vn 0.9522 0.2849 0.1105
vn 0.8790 0.4603 0.1245
vn 0.8048 0.5907 0.0583
vn 0.1046 -0.9895 -0.0996
vn 0.2243 -0.9493 -0.2203
vn 0.0433 -0.9649 -0.2592
vn 0.1290 -0.9197 -0.3708
vn 0.1086 -0.8335 -0.5418
vn 0.1048 -0.6995 -0.7069
vn 0.0964 -0.5500 -0.8296
vn 0.0742 -0.4576 -0.8860
vn 0.0458 -0.2989 -0.9532
vn 0.0543 -0.0691 -0.9961
vn 0.2550 -0.9662 -0.0393
vn 0.3707 -0.9193 -0.1325
vn 0.3491 -0.8730 -0.3405
vn 0.3541 -0.7785 -0.5182
vn 0.3726 -0.6597 -0.6526
vn 0.3562 -0.5278 -0.7711
vn 0.3640 -0.3662 -0.8564
vn 0.4510 -0.1115 -0.8856
vn 0.2606 -0.2808 -0.9237
vn 0.2947 -0.0606 -0.9537
vn 0.5331 -0.8305 -0.1615
vn 0.6733 -0.6784 -0.2939
vn 0.5322 -0.7726 -0.3462
vn 0.6390 -0.6767 -0.3657
vn 0.5185 -0.7076 -0.4801
vn 0.5717 -0.5845 -0.5758
vn 0.6054 -0.3951 -0.6909
vn 0.5982 -0.3500 -0.7209
vn 0.5236 -0.4806 -0.7035
vn 0.5362 -0.3572 -0.7648
vn 0.4849 -0.2228 -0.8457
vn 0.7059 -0.7027 -0.0886
vn 0.7885 -0.5915 -0.1685
vn 0.7644 -0.6262 -0.1533
vn 0.7328 -0.5851 -0.3472
vn 0.7342 -0.5465 -0.4029
vn 0.5960 -0.6082 -0.5243
vn 0.6732 -0.5339 -0.5117
vn 0.6921 -0.4302 -0.5796
vn 0.5418 -0.4913 -0.6820
vn 0.4711 -0.3128 -0.8248
vn 0.6852 -0.7099 -0.1627
vn 0.4884 -0.8608 -0.1430
vn 0.6439 -0.6696 -0.3702
vn 0.4416 -0.7939 -0.4180
vn 0.2813 -0.7344 -0.6177
vn 0.3070 -0.9447 -0.1155
vn 0.2531 -0.9155 -0.3128
vn 0.2006 -0.8160 -0.5422
vn 0.3300 -0.9386 -0.1001
vn 0.3922 -0.8595 -0.3277
vn 0.3267 -0.8064 -0.4929
vn 0.5628 -0.8196 -0.1078
vn 0.5460 -0.7896 -0.2801
vn 0.2172 0.2407 -0.9460
vn 0.1444 0.2334 -0.9616
vn 0.1578 -0.0298 -0.9870
vn 0.2164 -0.3743 -0.9017
vn 0.1122 0.1301 -0.9851
vn 0.0654 0.2736 -0.9596
vn 0.2824 -0.5481 -0.7873
vn 0.3190 -0.5464 -0.7744
vn 0.4179 -0.4485 -0.7901
vn 0.1992 -0.4765 -0.8563
vn 0.2757 -0.3085 -0.9104
vn 0.2639 -0.0516 -0.9632
vn 0.2595 0.1717 -0.9504
vn 0.3237 0.1145 -0.9392
vn 0.2003 0.1495 -0.9683
vn 0.1023 -0.0490 -0.9935
vn 0.1619 -0.3052 -0.9384
vn 0.2225 -0.3536 -0.9085
vn 0.2753 0.0815 -0.9579
vn 0.3648 -0.5000 -0.7855
vn 0.4095 -0.4681 -0.7830
vn 0.5186 -0.3457 -0.7820
vn 0.5883 -0.0660 -0.8059
vn 0.5766 0.1925 -0.7940
vn 0.4418 -0.2407 -0.8642
vn 0.4496 -0.0523 -0.8917
vn 0.4407 0.1746 -0.8805
vn 0.8134 0.4151 -0.4074
vn 0.2918 -0.0620 -0.9545
vn 0.0546 -0.0519 -0.9972
vn -0.1294 -0.1358 -0.9822
vn -0.1274 -0.1569 -0.9794
vn 0.1312 -0.1447 -0.9807
vn 0.4187 -0.0106 -0.9081
vn 0.6495 0.1122 -0.7520
vn 0.7767 0.2969 -0.5555
vn 0.4280 -0.3452 -0.8353
vn 0.5623 -0.2408 -0.7911
vn 0.6840 -0.0294 -0.7289
vn 0.7100 0.2024 -0.6745
vn 0.5015 0.8650 0.0166
vn 0.5947 0.7786 -0.2002
vn 0.3257 -0.5508 -0.7685
vn 0.4806 0.6176 -0.6226
vn 0.6905 0.5791 -0.4335
vn 0.2157 -0.3719 -0.9029
vn -0.0724 -0.2902 -0.9542
vn -0.2301 -0.2348 -0.9444
vn -0.2795 -0.0775 -0.9570
vn -0.0964 0.1648 -0.9816
vn 0.1659 0.2496 -0.9540
vn 0.4694 0.4066 -0.7838
vn 0.7172 0.3747 -0.5876
vn -0.2007 -0.1879 -0.9615
vn -0.2276 -0.0328 -0.9732
vn -0.1971 0.1752 -0.9646
vn 0.1876 0.9786 -0.0849
vn 0.2490 0.9261 -0.2833
vn 0.1629 -0.6631 -0.7306
vn 0.2465 0.7240 -0.6443
vn 0.2771 0.8226 -0.4965
vn 0.0521 -0.5707 -0.8195
vn -0.0334 -0.4322 -0.9012
vn -0.0752 -0.3351 -0.9392
vn 0.0215 0.3619 -0.9320
vn 0.0864 0.4159 -0.9053
vn 0.1760 0.6047 -0.7768
vn -0.0628 -0.1924 -0.9793
vn -0.0256 -0.0042 -0.9997
vn -0.0059 0.2300 -0.9732
vn 0.1789 0.9774 -0.1124
vn 0.1371 0.9499 -0.2809
vn 0.1717 -0.7193 -0.6732
vn 0.1570 0.7368 -0.6576
vn 0.1213 0.8550 -0.5043
vn 0.1532 -0.6179 -0.7712
vn 0.1585 -0.4544 -0.8766
vn 0.1569 -0.3624 -0.9187
vn 0.3089 0.1969 -0.9305
vn 0.2292 0.3194 -0.9195
vn 0.2004 0.4547 -0.8678
vn 0.1846 0.6319 -0.7528
vn 0.1147 -0.1933 -0.9744
vn 0.1550 0.0670 -0.9856
vn 0.1327 0.2148 -0.9676
vn 0.5429 0.8022 -0.2483
vn 0.3381 0.9326 -0.1259
vn 0.5438 -0.7057 -0.4542
vn 0.4965 0.7804 -0.3800
vn 0.3135 0.8949 -0.3175
vn 0.4521 -0.6658 -0.5936
vn 0.5524 -0.5225 -0.6496
vn 0.4910 0.5400 -0.6836
vn 0.3942 0.6771 -0.6214
vn 0.2730 0.8214 -0.5007
vn 0.3566 -0.5894 -0.7249
vn 0.4434 -0.4428 -0.7793
vn 0.4522 -0.2516 -0.8557
vn 0.4639 0.0807 -0.8822
vn 0.4066 0.2846 -0.8681
vn 0.4025 0.4641 -0.7891
vn 0.3179 0.6004 -0.7338
vn 0.3427 -0.1494 -0.9275
vn 0.3479 0.0228 -0.9372
vn 0.7113 -0.6827 -0.1672
vn 0.7670 -0.5683 -0.2979
vn 0.7842 0.5789 -0.2236
vn 0.7169 0.6813 -0.1479
vn 0.5469 0.8355 -0.0534
vn 0.6469 -0.6568 -0.3873
vn 0.7363 -0.5572 -0.3839
vn 0.7540 0.5607 -0.3422
vn 0.6678 0.6446 -0.3722
vn 0.6108 -0.5969 -0.5202
vn 0.6556 -0.4641 -0.5956
vn 0.7065 -0.2365 -0.6670
vn 0.7289 -0.0100 -0.6845
vn 0.6846 0.2662 -0.6785
vn 0.6285 0.4929 -0.6017
vn 0.5833 0.6043 -0.5428
vn 0.5928 -0.3755 -0.7124
vn 0.6106 -0.2312 -0.7574
vn 0.6016 0.0153 -0.7987
vn 0.5624 0.2703 -0.7814
vn 0.5268 0.4185 -0.7399
vn 0.2675 0.9418 0.2036
vn 0.2871 0.9579 -0.0053
vn 0.2637 0.9405 -0.2145
vn 0.3906 0.6898 -0.6096
vn 0.2740 0.8421 -0.4646
vn 0.3186 0.4964 -0.8075
vn 0.3162 0.6367 -0.7033
vn 0.2113 0.7534 -0.6227
vn 0.2789 0.3419 -0.8974
vn 0.6523 0.7275 0.2127
vn 0.4923 0.8473 0.1993
vn 0.6631 0.7485 -0.0054
vn 0.4910 0.8711 -0.0048
vn 0.6519 0.7245 -0.2236
vn 0.4922 0.8450 -0.2093
vn 0.6114 0.5145 -0.6013
vn 0.5493 0.6586 -0.5143
vn 0.4566 0.7893 -0.4105
vn 0.5139 0.4285 -0.7432
vn 0.4277 0.5850 -0.6891
vn 0.4233 0.3273 -0.8448
vn 0.7709 0.6102 0.1827
vn 0.7389 0.6406 0.2090
vn 0.8207 0.5691 -0.0501
vn 0.7742 0.6327 -0.0187
vn 0.8283 0.4857 -0.2793
vn 0.7609 0.6058 -0.2326
vn 0.7730 0.4214 -0.4742
vn 0.7229 0.5791 -0.3770
vn 0.6897 0.3255 -0.6468
vn 0.7444 0.6556 0.1266
vn 0.8120 0.5739 -0.1060
vn 0.8246 0.5096 -0.2457
vn 0.7983 -0.5951 -0.0924
vn 0.8866 -0.4328 -0.1634
vn 0.9621 -0.2382 -0.1329
vn 0.9913 0.0388 -0.1256
vn 0.9522 0.2849 -0.1105
vn 0.8790 0.4603 -0.1245
vn 0.8048 0.5907 -0.0583
vn 0.8351 -0.4239 -0.3507
vn 0.9149 -0.2197 -0.3386
vn 0.9398 0.0125 -0.3416
vn 0.9196 0.2565 -0.2975
vn 0.8340 0.4598 -0.3050
vn 0.7729 -0.3828 -0.5061
vn 0.8169 -0.2165 -0.5347
vn 0.8434 -0.0110 -0.5372
vn 0.8179 0.2470 -0.5197
vn 0.7633 0.4416 -0.4716
vt 0.249653 0.270535
vt 0.247373 0.238708
vt 0.266891 0.240654
vt 0.274164 0.262063
vt 0.252945 0.308729
vt 0.282959 0.298443
vt 0.220717 0.282945
vt 0.215272 0.242413
vt 0.232514 0.301610
vt 0.225610 0.318415
vt 0.213501 0.300322
vt 0.244580 0.325393
vt 0.294007 0.252192
vt 0.282826 0.215165
vt 0.310009 0.221420
vt 0.312830 0.242980
vt 0.300754 0.291632
vt 0.317997 0.282919
vt 0.246741 0.213412
vt 0.246834 0.188213
vt 0.270790 0.188246
vt 0.211440 0.218220
vt 0.206986 0.193621
vt 0.339012 0.230988
vt 0.325510 0.204562
vt 0.351362 0.267850
vt 0.308273 0.185312
vt 0.285922 0.168810
vt 0.249724 0.156458
vt 0.197512 0.153244
vt 0.376124 0.218283
vt 0.359080 0.178485
vt 0.370669 0.245813
vt 0.392341 0.229318
vt 0.383943 0.255336
vt 0.365970 0.276451
vt 0.343783 0.157538
vt 0.320453 0.138594
vt 0.256379 0.116331
vt 0.210881 0.126061
vt 0.182544 0.116042
vt 0.226801 0.100457
vt 0.174543 0.142596
vt 0.233296 0.360430
vt 0.247192 0.343935
vt 0.260718 0.639664
vt 0.257306 0.601045
vt 0.273973 0.609086
vt 0.277499 0.637226
vt 0.268371 0.677696
vt 0.279914 0.663832
vt 0.258921 0.349827
vt 0.287953 0.335864
vt 0.266728 0.385984
vt 0.290325 0.377497
vt 0.274852 0.420446
vt 0.290923 0.405427
vt 0.297783 0.635618
vt 0.284326 0.598168
vt 0.297739 0.678049
vt 0.313258 0.645630
vt 0.315379 0.663265
vt 0.245624 0.370552
vt 0.239416 0.398547
vt 0.229214 0.390306
vt 0.247497 0.446438
vt 0.266231 0.584635
vt 0.258119 0.555952
vt 0.279055 0.563840
vt 0.246531 0.577888
vt 0.281581 0.689067
vt 0.305513 0.329385
vt 0.323303 0.321391
vt 0.309759 0.369083
vt 0.328748 0.361449
vt 0.311859 0.411012
vt 0.332049 0.386020
vt 0.330209 0.680721
vt 0.324251 0.638480
vt 0.282829 0.444253
vt 0.292810 0.484254
vt 0.312831 0.451052
vt 0.307257 0.599409
vt 0.296634 0.550201
vt 0.322153 0.569290
vt 0.323180 0.600270
vt 0.310121 0.620559
vt 0.318572 0.692286
vt 0.263458 0.462867
vt 0.267383 0.497208
vt 0.249952 0.503916
vt 0.272647 0.529419
vt 0.351733 0.310456
vt 0.368351 0.304801
vt 0.356874 0.348379
vt 0.371616 0.328635
vt 0.349401 0.390972
vt 0.342742 0.420923
vt 0.334864 0.470514
vt 0.347731 0.605564
vt 0.338028 0.551589
vt 0.356677 0.649081
vt 0.360335 0.689313
vt 0.318470 0.498838
vt 0.321334 0.532951
vt 0.387344 0.297248
vt 0.387625 0.321539
vt 0.386498 0.343723
vt 0.382094 0.390105
vt 0.377792 0.422633
vt 0.372264 0.465578
vt 0.370582 0.553295
vt 0.379699 0.615549
vt 0.387008 0.660248
vt 0.389267 0.703395
vt 0.277654 0.720261
vt 0.300354 0.717982
vt 0.266452 0.709586
vt 0.284720 0.758487
vt 0.301898 0.741346
vt 0.321733 0.720646
vt 0.339340 0.721687
vt 0.324101 0.759598
vt 0.343229 0.741575
vt 0.302399 0.775019
vt 0.301808 0.794766
vt 0.325634 0.789038
vt 0.280386 0.783513
vt 0.358528 0.730561
vt 0.356267 0.751725
vt 0.349317 0.776260
vt 0.340405 0.800245
vt 0.326436 0.820399
vt 0.387782 0.746692
vt 0.385983 0.768907
vt 0.380959 0.794077
vt 0.373776 0.820324
vt 0.360595 0.844690
vt 0.199834 0.326519
vt 0.205603 0.302773
vt 0.194029 0.291127
vt 0.185413 0.251354
vt 0.188971 0.315114
vt 0.165134 0.295941
vt 0.157024 0.265347
vt 0.172793 0.333542
vt 0.184370 0.344432
vt 0.141786 0.300848
vt 0.141360 0.277236
vt 0.143859 0.340021
vt 0.179099 0.227802
vt 0.171097 0.204178
vt 0.148540 0.241907
vt 0.137935 0.219390
vt 0.121101 0.260253
vt 0.120284 0.230271
vt 0.122806 0.300563
vt 0.126668 0.342181
vt 0.105186 0.299280
vt 0.101805 0.277294
vt 0.109976 0.340907
vt 0.152193 0.166563
vt 0.157800 0.147599
vt 0.119825 0.192916
vt 0.101905 0.218278
vt 0.092649 0.241579
vt 0.085579 0.266041
vt 0.081393 0.296332
vt 0.078288 0.337347
vt 0.122304 0.134383
vt 0.120048 0.152566
vt 0.088388 0.162286
vt 0.084870 0.141423
vt 0.067455 0.200818
vt 0.059790 0.224746
vt 0.054886 0.248762
vt 0.049534 0.292314
vt 0.058193 0.319607
vt 0.048228 0.332080
vt 0.037923 0.306301
vt 0.066892 0.350384
vt 0.203783 0.370081
vt 0.214897 0.395148
vt 0.230983 0.608282
vt 0.227463 0.576543
vt 0.235361 0.644304
vt 0.240327 0.680088
vt 0.186840 0.363336
vt 0.206487 0.614621
vt 0.201000 0.580743
vt 0.211649 0.650231
vt 0.216360 0.684989
vt 0.182028 0.622386
vt 0.176049 0.593660
vt 0.188012 0.656936
vt 0.192337 0.692089
vt 0.156811 0.630321
vt 0.160408 0.605053
vt 0.162769 0.665199
vt 0.164354 0.700853
vt 0.147066 0.670197
vt 0.144492 0.645594
vt 0.149997 0.691991
vt 0.208312 0.409150
vt 0.195311 0.387153
vt 0.214997 0.454754
vt 0.221145 0.515292
vt 0.225085 0.553957
vt 0.178141 0.375740
vt 0.180455 0.414526
vt 0.183690 0.466173
vt 0.191082 0.527050
vt 0.196899 0.559375
vt 0.148647 0.378830
vt 0.156696 0.420570
vt 0.164217 0.473644
vt 0.162696 0.535992
vt 0.170693 0.573457
vt 0.144089 0.594931
vt 0.143038 0.560446
vt 0.144845 0.621383
vt 0.130961 0.639948
vt 0.126721 0.612855
vt 0.126852 0.678006
vt 0.135200 0.711730
vt 0.154277 0.715562
vt 0.115274 0.704874
vt 0.114051 0.693018
vt 0.131189 0.381640
vt 0.137263 0.423263
vt 0.145339 0.478891
vt 0.147624 0.519491
vt 0.113498 0.381754
vt 0.117196 0.425444
vt 0.121584 0.484945
vt 0.123454 0.550821
vt 0.123542 0.584113
vt 0.106204 0.608716
vt 0.105026 0.578168
vt 0.108350 0.648654
vt 0.111101 0.670682
vt 0.093485 0.653866
vt 0.089045 0.629896
vt 0.101124 0.688474
vt 0.103632 0.724580
vt 0.117289 0.731525
vt 0.085377 0.381571
vt 0.087186 0.423331
vt 0.096041 0.488262
vt 0.092321 0.540708
vt 0.069020 0.380797
vt 0.069361 0.407354
vt 0.086529 0.574457
vt 0.079351 0.609335
vt 0.074362 0.633003
vt 0.072554 0.662422
vt 0.071878 0.701563
vt 0.074957 0.738198
vt 0.061316 0.488917
vt 0.057387 0.426848
vt 0.060254 0.537125
vt 0.050372 0.376920
vt 0.053224 0.403065
vt 0.055695 0.574500
vt 0.050178 0.616537
vt 0.047052 0.641535
vt 0.044904 0.672882
vt 0.044130 0.712649
vt 0.046920 0.751725
vt 0.249726 0.721789
vt 0.221189 0.722492
vt 0.225057 0.750359
vt 0.246535 0.743743
vt 0.193752 0.734263
vt 0.203204 0.753044
vt 0.174423 0.729765
vt 0.263683 0.735236
vt 0.258312 0.759705
vt 0.264305 0.789486
vt 0.228420 0.773355
vt 0.232526 0.797627
vt 0.195612 0.772833
vt 0.184095 0.752141
vt 0.198911 0.802281
vt 0.165467 0.744525
vt 0.168097 0.781636
vt 0.181121 0.802626
vt 0.141879 0.750733
vt 0.146112 0.771785
vt 0.273554 0.813345
vt 0.237822 0.826338
vt 0.197809 0.826840
vt 0.168483 0.818574
vt 0.149920 0.807195
vt 0.116870 0.764167
vt 0.131600 0.789546
vt 0.101720 0.757793
vt 0.293564 0.847574
vt 0.247509 0.863100
vt 0.192821 0.863993
vt 0.140474 0.844178
vt 0.133557 0.822509
vt 0.105996 0.812419
vt 0.099915 0.785116
vt 0.114550 0.839838
vt 0.085661 0.778039
vt 0.081995 0.798760
vt 0.326118 0.877311
vt 0.264208 0.898129
vt 0.178110 0.898940
vt 0.110591 0.877962
vt 0.085670 0.858702
vt 0.064163 0.831010
vt 0.052249 0.796507
vt 0.066012 0.807826
vt 0.041960 0.817252
vt 0.418230 0.244602
vt 0.415916 0.221081
vt 0.412616 0.199297
vt 0.402852 0.159912
vt 0.393214 0.137463
vt 0.375405 0.114859
vt 0.290621 0.081616
vt 0.228291 0.089809
vt 0.145954 0.081995
vt 0.180417 0.065160
vt 0.440897 0.237783
vt 0.437935 0.217912
vt 0.453719 0.193139
vt 0.457890 0.153670
vt 0.461383 0.230694
vt 0.459268 0.126944
vt 0.462176 0.100742
vt 0.476757 0.066254
vt 0.901324 0.060141
vt 0.989661 0.035863
vt 0.955197 0.052698
vt 0.971095 0.077105
vt 0.496541 0.178262
vt 0.490717 0.156914
vt 0.506914 0.221066
vt 0.528380 0.131471
vt 0.522198 0.100715
vt 0.530749 0.172843
vt 0.532007 0.203079
vt 0.580650 0.086860
vt 0.605218 0.110394
vt 0.726678 0.094079
vt 0.680110 0.110260
vt 0.570735 0.171821
vt 0.576805 0.148361
vt 0.563583 0.219435
vt 0.533035 0.237411
vt 0.616460 0.137260
vt 0.620666 0.174741
vt 0.604358 0.205737
vt 0.698109 0.133030
vt 0.737706 0.121282
vt 0.683771 0.169860
vt 0.629025 0.231394
vt 0.642133 0.201078
vt 0.599357 0.257541
vt 0.678488 0.202970
vt 0.675244 0.237379
vt 0.639344 0.279550
vt 0.617917 0.292644
vt 0.674556 0.271869
vt 0.648007 0.315665
vt 0.626762 0.309862
vt 0.674189 0.313501
vt 0.673676 0.337196
vt 0.660271 0.334608
vt 0.419363 0.285345
vt 0.407825 0.312042
vt 0.430824 0.295912
vt 0.419326 0.324987
vt 0.418081 0.377951
vt 0.415919 0.411388
vt 0.413807 0.459308
vt 0.412977 0.557485
vt 0.417239 0.628294
vt 0.420771 0.677445
vt 0.421989 0.723015
vt 0.441053 0.265239
vt 0.455380 0.273781
vt 0.457902 0.318787
vt 0.456436 0.382865
vt 0.440642 0.409629
vt 0.450131 0.456039
vt 0.470555 0.454882
vt 0.464178 0.541275
vt 0.478222 0.503039
vt 0.461531 0.629507
vt 0.465577 0.697911
vt 0.452995 0.739487
vt 0.483959 0.722353
vt 0.476437 0.751053
vt 0.500486 0.267722
vt 0.498893 0.320224
vt 0.495986 0.385583
vt 0.493837 0.454729
vt 0.493515 0.523885
vt 0.483702 0.555413
vt 0.497644 0.611015
vt 0.503924 0.577379
vt 0.504009 0.677651
vt 0.508375 0.717275
vt 0.516716 0.763296
vt 0.540653 0.278370
vt 0.531208 0.336512
vt 0.523909 0.397702
vt 0.511714 0.455528
vt 0.529702 0.420362
vt 0.523171 0.456659
vt 0.516569 0.516230
vt 0.522095 0.495172
vt 0.521932 0.584501
vt 0.559463 0.264236
vt 0.516280 0.618943
vt 0.534793 0.658299
vt 0.532161 0.616385
vt 0.537743 0.703377
vt 0.554215 0.721414
vt 0.554167 0.686702
vt 0.580528 0.779454
vt 0.544727 0.789888
vt 0.539853 0.459013
vt 0.543513 0.417717
vt 0.539082 0.499586
vt 0.555240 0.354211
vt 0.567635 0.314161
vt 0.547223 0.391637
vt 0.540311 0.526848
vt 0.543818 0.568219
vt 0.548744 0.608584
vt 0.581396 0.285394
vt 0.557177 0.644644
vt 0.566075 0.674439
vt 0.579112 0.700059
vt 0.607327 0.737808
vt 0.561172 0.463046
vt 0.563195 0.426482
vt 0.554326 0.495164
vt 0.575688 0.369680
vt 0.587685 0.336359
vt 0.567124 0.403316
vt 0.568222 0.479953
vt 0.561413 0.511670
vt 0.564794 0.562305
vt 0.569743 0.594506
vt 0.602313 0.311725
vt 0.577308 0.625156
vt 0.585730 0.654143
vt 0.597914 0.673993
vt 0.623053 0.703306
vt 0.571981 0.450492
vt 0.572917 0.437107
vt 0.597226 0.384562
vt 0.598582 0.352037
vt 0.584635 0.425538
vt 0.580187 0.467738
vt 0.581891 0.512834
vt 0.584266 0.557107
vt 0.579493 0.586941
vt 0.618355 0.341849
vt 0.611011 0.376275
vt 0.593503 0.571764
vt 0.594121 0.609081
vt 0.595207 0.644258
vt 0.641379 0.334440
vt 0.615455 0.634337
vt 0.608817 0.652041
vt 0.629494 0.643690
vt 0.634045 0.663564
vt 0.603806 0.432476
vt 0.607001 0.406955
vt 0.600353 0.473674
vt 0.597851 0.515272
vt 0.596028 0.539509
vt 0.623714 0.399123
vt 0.630318 0.367528
vt 0.617915 0.438185
vt 0.613241 0.477820
vt 0.610286 0.517914
vt 0.609790 0.557595
vt 0.609714 0.592644
vt 0.649665 0.358524
vt 0.647676 0.393064
vt 0.629356 0.578130
vt 0.623075 0.606619
vt 0.669950 0.369646
vt 0.660142 0.391171
vt 0.644117 0.591397
vt 0.644451 0.622141
vt 0.645040 0.652820
vt 0.419224 0.762607
vt 0.404953 0.776215
vt 0.429645 0.782847
vt 0.414973 0.810202
vt 0.398211 0.831417
vt 0.428567 0.843225
vt 0.408007 0.858172
vt 0.444863 0.760989
vt 0.466392 0.795762
vt 0.456802 0.821790
vt 0.494094 0.824261
vt 0.476403 0.852365
vt 0.453086 0.874831
vt 0.504526 0.801656
vt 0.533037 0.825728
vt 0.518442 0.854069
vt 0.578622 0.814322
vt 0.630536 0.443552
vt 0.634306 0.420002
vt 0.625215 0.481943
vt 0.622801 0.521173
vt 0.623066 0.545145
vt 0.647152 0.415860
vt 0.645504 0.449592
vt 0.642596 0.488297
vt 0.638071 0.526486
vt 0.633400 0.556468
vt 0.667391 0.412487
vt 0.675155 0.391355
vt 0.665622 0.457903
vt 0.662052 0.495823
vt 0.657790 0.533983
vt 0.653011 0.577399
vt 0.657672 0.601018
vt 0.070797 0.109514
vt 0.070825 0.135470
vt 0.043238 0.144138
vt 0.035549 0.116154
vt 0.028398 0.188184
vt 0.023897 0.212978
vt 0.021404 0.236315
vt 0.018614 0.277316
vt 0.017720 0.300184
vt 0.017433 0.324775
vt 0.034070 0.088171
vt 0.048570 0.077105
vt 0.956595 0.088171
vt 0.908331 0.099585
vt 0.958075 0.116154
vt 0.993322 0.109514
vt 0.965763 0.144138
vt 0.904950 0.142104
vt 0.950923 0.188184
vt 0.906135 0.177112
vt 0.946422 0.212978
vt 0.906522 0.203606
vt 0.943929 0.236315
vt 0.906658 0.230659
vt 0.941139 0.277316
vt 0.909097 0.270935
vt 0.940245 0.300184
vt 0.921955 0.297878
vt 0.919962 0.317804
vt 0.902166 0.308650
vt 0.939958 0.324775
vt 0.803953 0.117341
vt 0.860860 0.150308
vt 0.831650 0.163504
vt 0.795541 0.140858
vt 0.877825 0.171878
vt 0.864477 0.199576
vt 0.884093 0.230723
vt 0.877185 0.250580
vt 0.852351 0.238410
vt 0.863337 0.291341
vt 0.845035 0.267526
vt 0.753124 0.125621
vt 0.759486 0.149016
vt 0.738752 0.183517
vt 0.807002 0.182202
vt 0.783935 0.212958
vt 0.827720 0.204569
vt 0.822804 0.227092
vt 0.815049 0.274947
vt 0.785015 0.247772
vt 0.838082 0.302218
vt 0.725796 0.214810
vt 0.716162 0.248025
vt 0.756185 0.228773
vt 0.757565 0.263576
vt 0.776936 0.302606
vt 0.708870 0.281501
vt 0.738871 0.307694
vt 0.755567 0.332053
vt 0.701948 0.322068
vt 0.725484 0.339642
vt 0.745556 0.345768
vt 0.698600 0.345262
vt 0.711398 0.351097
vt 0.024571 0.483508
vt 0.022030 0.410109
vt 0.023945 0.554003
vt 0.019175 0.367355
vt 0.032513 0.395404
vt 0.008703 0.378573
vt 0.021260 0.593927
vt 0.016589 0.638507
vt 0.024963 0.651317
vt 0.013976 0.682376
vt 0.002664 0.670238
vt 0.014435 0.725360
vt 0.015712 0.766583
vt 0.944555 0.410109
vt 0.903643 0.401769
vt 0.906875 0.353492
vt 0.931228 0.378573
vt 0.947097 0.483508
vt 0.901927 0.476177
vt 0.946470 0.554003
vt 0.905254 0.581509
vt 0.920404 0.346103
vt 0.941701 0.367355
vt 0.943786 0.593927
vt 0.922684 0.612392
vt 0.905230 0.651393
vt 0.892048 0.634210
vt 0.939114 0.638507
vt 0.925189 0.670238
vt 0.902469 0.695979
vt 0.936501 0.682376
vt 0.915457 0.702603
vt 0.910407 0.735502
vt 0.890346 0.742581
vt 0.936960 0.725360
vt 0.912370 0.776563
vt 0.890937 0.784741
vt 0.938237 0.766583
vt 0.863654 0.340498
vt 0.859951 0.398594
vt 0.857723 0.478662
vt 0.856672 0.567000
vt 0.857093 0.650389
vt 0.874117 0.676386
vt 0.867250 0.707468
vt 0.840490 0.709303
vt 0.861958 0.752511
vt 0.830736 0.760268
vt 0.860044 0.795622
vt 0.816779 0.813036
vt 0.824784 0.343895
vt 0.809917 0.323061
vt 0.826319 0.412161
vt 0.827353 0.486942
vt 0.834470 0.561134
vt 0.821831 0.630529
vt 0.808514 0.695321
vt 0.792592 0.754003
vt 0.793193 0.801758
vt 0.751295 0.811805
vt 0.759054 0.767040
vt 0.784078 0.835834
vt 0.822032 0.557325
vt 0.819351 0.511853
vt 0.818374 0.602853
vt 0.644704 0.761294
vt 0.632192 0.801212
vt 0.690193 0.763311
vt 0.688786 0.813070
vt 0.787548 0.339159
vt 0.717732 0.753918
vt 0.740322 0.736769
vt 0.795772 0.376092
vt 0.802131 0.425756
vt 0.805437 0.471589
vt 0.780442 0.669191
vt 0.792757 0.627032
vt 0.763720 0.708833
vt 0.805970 0.502918
vt 0.804400 0.551577
vt 0.799082 0.597581
vt 0.653793 0.719839
vt 0.688926 0.719911
vt 0.766098 0.359545
vt 0.707826 0.714600
vt 0.726455 0.697528
vt 0.775573 0.392890
vt 0.781817 0.434619
vt 0.785370 0.475607
vt 0.759237 0.645953
vt 0.773570 0.595622
vt 0.745516 0.674595
vt 0.785972 0.502968
vt 0.782401 0.543742
vt 0.783916 0.582814
vt 0.772595 0.557318
vt 0.662396 0.677729
vt 0.689211 0.669900
vt 0.688653 0.691668
vt 0.673823 0.665208
vt 0.747493 0.382896
vt 0.728215 0.362187
vt 0.717021 0.666425
vt 0.704463 0.697824
vt 0.763879 0.404445
vt 0.760062 0.439150
vt 0.748728 0.422492
vt 0.765688 0.489586
vt 0.752906 0.581851
vt 0.763026 0.536533
vt 0.740809 0.624650
vt 0.737985 0.658220
vt 0.728113 0.631284
vt 0.775317 0.508988
vt 0.774055 0.523750
vt 0.696167 0.378575
vt 0.667130 0.632803
vt 0.657377 0.658836
vt 0.716569 0.380869
vt 0.712594 0.415946
vt 0.701527 0.405740
vt 0.692787 0.606470
vt 0.690852 0.638056
vt 0.675907 0.605787
vt 0.732699 0.401951
vt 0.733468 0.437751
vt 0.716130 0.603850
vt 0.707371 0.637107
vt 0.747631 0.456420
vt 0.746465 0.484523
vt 0.732308 0.480695
vt 0.742734 0.528686
vt 0.729828 0.523476
vt 0.737044 0.572190
vt 0.724724 0.565119
vt 0.733576 0.597633
vt 0.386423 0.899838
vt 0.311027 0.931795
vt 0.122983 0.931231
vt 0.052026 0.895341
vt 0.030752 0.855229
vt 0.020503 0.820772
vt 0.058765 0.870191
vt 0.020466 0.880768
vt 0.017960 0.799346
vt 0.524120 0.897686
vt 0.473328 0.904982
vt 0.622860 0.927406
vt 0.541352 0.944091
vt 0.793126 0.922523
vt 0.862873 0.938327
vt 0.992774 0.929278
vt 0.880033 0.885130
vt 0.908198 0.911380
vt 0.974551 0.895341
vt 0.942991 0.880768
vt 0.896602 0.828060
vt 0.906198 0.856815
vt 0.864806 0.854558
vt 0.953277 0.855229
vt 0.943028 0.820772
vt 0.918256 0.797846
vt 0.940485 0.799346
vt 0.596035 0.860223
vt 0.562693 0.883997
vt 0.672692 0.876098
vt 0.654351 0.905978
vt 0.762002 0.863903
vt 0.768613 0.901085
vt 0.832757 0.850859
vt 0.830543 0.879814
vt 0.860001 0.827955
vt 0.615612 0.835293
vt 0.681229 0.853571
vt 0.739691 0.851393
vt 0.687797 0.395801
vt 0.691113 0.421080
vt 0.684778 0.465262
vt 0.680912 0.503409
vt 0.676990 0.542066
vt 0.671427 0.585570
vt 0.661481 0.602751
vt 0.709185 0.438449
vt 0.704781 0.472169
vt 0.700380 0.511398
vt 0.696804 0.551084
vt 0.694377 0.582971
vt 0.720532 0.451509
vt 0.719760 0.477162
vt 0.717801 0.518568
vt 0.712330 0.558372
vt 0.706845 0.581019
s 1
f 8/1/8 7/2/7 4/3/4 5/4/5
f 9/5/9 8/1/8 5/4/5 6/6/6
f 11/7/11 10/8/10 7/2/7 8/1/8
f 12/9/12 11/7/11 8/1/8 9/5/9
f 12/9/12 3/10/3 2/11/2 11/7/11
f 3/10/3 12/9/12 9/5/9 1/12/1
f 18/13/18 17/14/17 13/15/13 14/16/14
f 18/13/18 5/4/5 4/3/4 17/14/17
f 19/17/19 18/13/18 14/16/14 15/18/15
f 19/17/19 6/6/6 5/4/5 18/13/18
f 21/19/21 20/20/20 16/21/16 17/14/17
f 7/2/7 21/19/21 17/14/17 4/3/4
f 23/22/23 22/23/22 20/20/20 21/19/21
f 10/8/10 23/22/23 21/19/21 7/2/7
f 26/24/26 14/16/14 13/15/13 25/25/25
f 27/26/27 15/18/15 14/16/14 26/24/26
f 29/27/29 17/14/17 16/21/16 28/28/28
f 17/14/17 29/27/29 25/25/25 13/15/13
f 20/20/20 30/29/30 28/28/28 16/21/16
f 22/23/22 32/30/32 30/29/30 20/20/20
f 36/31/36 26/24/26 25/25/25 35/32/35
f 37/33/37 36/31/36 33/34/33 34/35/34
f 37/33/37 27/26/27 26/24/26 36/31/36
f 27/26/27 37/33/37 34/35/34 24/36/24
f 39/37/39 29/27/29 28/28/28 38/38/38
f 29/27/29 39/37/39 35/32/35 25/25/25
f 30/29/30 41/39/41 38/38/38 28/28/28
f 43/40/43 42/41/42 40/42/40 41/39/41
f 43/40/43 32/30/32 31/43/31 42/41/42
f 32/30/32 43/40/43 41/39/41 30/29/30
f 48/44/48 3/10/3 1/12/1 44/45/44
f 52/46/52 51/47/51 45/48/45 46/49/46
f 53/50/53 52/46/52 46/49/46 47/51/47
f 59/52/59 9/5/9 6/6/6 54/53/54
f 59/52/59 44/45/44 1/12/1 9/5/9
f 60/54/60 59/52/59 54/53/54 55/55/55
f 61/56/61 60/54/60 55/55/55 56/57/56
f 64/58/64 46/49/46 45/48/45 63/59/63
f 65/60/65 64/58/64 57/61/57 58/62/58
f 65/60/65 47/51/47 46/49/46 64/58/64
f 66/63/66 48/44/48 44/45/44 59/52/59
f 67/64/67 66/63/66 59/52/59 60/54/60
f 67/64/67 49/65/49 48/44/48 66/63/66
f 68/66/68 67/64/67 60/54/60 61/56/61
f 71/67/71 70/68/70 62/69/62 63/59/63
f 71/67/71 51/47/51 50/70/50 70/68/70
f 51/47/51 71/67/71 63/59/63 45/48/45
f 72/71/72 53/50/53 47/51/47 65/60/65
f 76/72/76 19/17/19 15/18/15 73/73/73
f 76/72/76 54/53/54 6/6/6 19/17/19
f 77/74/77 76/72/76 73/73/73 74/75/74
f 77/74/77 55/55/55 54/53/54 76/72/76
f 78/76/78 77/74/77 74/75/74 75/77/75
f 78/76/78 56/57/56 55/55/55 77/74/77
f 83/78/83 58/62/58 57/61/57 82/79/82
f 84/80/84 61/56/61 56/57/56 78/76/78
f 85/81/85 84/80/84 78/76/78 79/82/79
f 87/83/87 86/84/86 80/85/80 81/86/81
f 87/83/87 63/59/63 62/69/62 86/84/86
f 88/87/88 87/83/87 81/86/81 82/79/82
f 88/87/88 64/58/64 63/59/63 87/83/87
f 64/58/64 88/87/88 82/79/82 57/61/57
f 89/88/89 65/60/65 58/62/58 83/78/83
f 90/89/90 68/66/68 61/56/61 84/80/84
f 91/90/91 90/89/90 84/80/84 85/81/85
f 91/90/91 69/91/69 68/66/68 90/89/90
f 92/92/92 91/90/91 85/81/85 86/84/86
f 92/92/92 70/68/70 69/91/69 91/90/91
f 70/68/70 92/92/92 86/84/86 62/69/62
f 95/93/95 27/26/27 24/36/24 93/94/93
f 95/93/95 73/73/73 15/18/15 27/26/27
f 96/95/96 95/93/95 93/94/93 94/96/94
f 96/95/96 74/75/74 73/73/73 95/93/95
f 97/97/97 75/77/75 74/75/74 96/95/96
f 98/98/98 78/76/78 75/77/75 97/97/97
f 99/99/99 79/82/79 78/76/78 98/98/98
f 101/100/101 81/86/81 80/85/80 100/101/100
f 102/102/102 82/79/82 81/86/81 101/100/101
f 103/103/103 83/78/83 82/79/82 102/102/102
f 104/104/104 85/81/85 79/82/79 99/99/99
f 105/105/105 104/104/104 99/99/99 100/101/100
f 105/105/105 86/84/86 85/81/85 104/104/104
f 86/84/86 105/105/105 100/101/100 80/85/80
f 106/106/106 93/94/93 24/36/24 34/35/34
f 107/107/107 94/96/94 93/94/93 106/106/106
f 108/108/108 96/95/96 94/96/94 107/107/107
f 109/109/109 97/97/97 96/95/96 108/108/108
f 110/110/110 98/98/98 97/97/97 109/109/109
f 111/111/111 99/99/99 98/98/98 110/110/110
f 112/112/112 100/101/100 99/99/99 111/111/111
f 113/113/113 101/100/101 100/101/100 112/112/112
f 114/114/114 102/102/102 101/100/101 113/113/113
f 115/115/115 103/103/103 102/102/102 114/114/114
f 119/116/119 72/71/72 65/60/65 117/117/117
f 119/116/119 116/118/116 53/50/53 72/71/72
f 120/119/120 119/116/119 117/117/117 118/120/118
f 124/121/124 89/88/89 83/78/83 122/122/122
f 124/121/124 117/117/117 65/60/65 89/88/89
f 125/123/125 124/121/124 122/122/122 123/124/123
f 125/123/125 118/120/118 117/117/117 124/121/124
f 127/125/127 120/119/120 118/120/118 125/123/125
f 128/126/128 127/125/127 125/123/125 126/127/126
f 128/126/128 121/128/121 120/119/120 127/125/127
f 129/129/129 122/122/122 83/78/83 103/103/103
f 130/130/130 123/124/123 122/122/122 129/129/129
f 131/131/131 125/123/125 123/124/123 130/130/130
f 132/132/132 126/127/126 125/123/125 131/131/131
f 133/133/133 128/126/128 126/127/126 132/132/132
f 134/134/134 129/129/129 103/103/103 115/115/115
f 135/135/135 130/130/130 129/129/129 134/134/134
f 136/136/136 131/131/131 130/130/130 135/135/135
f 137/137/137 132/132/132 131/131/131 136/136/136
f 138/138/138 133/133/133 132/132/132 137/137/137
f 140/139/140 139/140/139 2/11/2 3/10/3
f 143/141/143 142/142/142 10/8/10 11/7/11
f 139/140/139 143/141/143 11/7/11 2/11/2
f 140/139/140 144/143/144 143/141/143 139/140/139
f 146/144/146 145/145/145 142/142/142 143/141/143
f 147/146/147 146/144/146 143/141/143 144/143/144
f 141/147/141 147/146/147 144/143/144 140/139/140
f 149/148/149 148/149/148 145/145/145 146/144/146
f 150/150/150 149/148/149 146/144/146 147/146/147
f 152/151/152 151/152/151 22/23/22 23/22/23
f 142/142/142 152/151/152 23/22/23 10/8/10
f 154/153/154 153/154/153 151/152/151 152/151/152
f 145/145/145 154/153/154 152/151/152 142/142/142
f 156/155/156 155/156/155 153/154/153 154/153/154
f 148/149/148 156/155/156 154/153/154 145/145/145
f 149/148/149 157/157/157 156/155/156 148/149/148
f 150/150/150 158/158/158 157/157/157 149/148/149
f 160/159/160 159/160/159 156/155/156 157/157/157
f 161/161/161 160/159/160 157/157/157 158/158/158
f 163/162/163 162/163/162 31/43/31 32/30/32
f 151/152/151 163/162/163 32/30/32 22/23/22
f 153/154/153 164/164/164 163/162/163 151/152/151
f 155/156/155 165/165/165 164/164/164 153/154/153
f 156/155/156 166/166/166 165/165/165 155/156/155
f 159/160/159 167/167/167 166/166/166 156/155/156
f 160/159/160 168/168/168 167/167/167 159/160/159
f 161/161/161 169/169/169 168/168/168 160/159/160
f 162/163/162 171/170/171 42/41/42 31/43/31
f 163/162/163 172/171/172 171/170/171 162/163/162
f 174/172/174 173/173/173 171/170/171 172/171/172
f 164/164/164 174/172/174 172/171/172 163/162/163
f 165/165/165 175/174/175 174/172/174 164/164/164
f 166/166/166 176/175/176 175/174/175 165/165/165
f 167/167/167 177/176/177 176/175/176 166/166/166
f 168/168/168 178/177/178 177/176/177 167/167/167
f 169/169/169 179/178/179 178/177/178 168/168/168
f 181/179/181 180/180/180 178/177/178 179/178/179
f 170/181/170 181/179/181 179/178/179 169/169/169
f 182/182/182 140/139/140 3/10/3 48/44/48
f 183/183/183 182/182/182 48/44/48 49/65/49
f 185/184/185 184/185/184 50/70/50 51/47/51
f 186/186/186 185/184/185 51/47/51 52/46/52
f 187/187/187 186/186/186 52/46/52 53/50/53
f 188/188/188 141/147/141 140/139/140 182/182/182
f 190/189/190 189/190/189 184/185/184 185/184/185
f 191/191/191 190/189/190 185/184/185 186/186/186
f 192/192/192 191/191/191 186/186/186 187/187/187
f 194/193/194 193/194/193 189/190/189 190/189/190
f 195/195/195 194/193/194 190/189/190 191/191/191
f 196/196/196 195/195/195 191/191/191 192/192/192
f 198/197/198 197/198/197 193/194/193 194/193/194
f 199/199/199 198/197/198 194/193/194 195/195/195
f 200/200/200 199/199/199 195/195/195 196/196/196
f 202/201/202 201/202/201 198/197/198 199/199/199
f 203/203/203 202/201/202 199/199/199 200/200/200
f 183/183/183 205/204/205 204/205/204 182/182/182
f 205/204/205 183/183/183 49/65/49 67/64/67
f 206/206/206 205/204/205 67/64/67 68/66/68
f 207/207/207 206/206/206 68/66/68 69/91/69
f 208/208/208 207/207/207 69/91/69 70/68/70
f 184/185/184 208/208/208 70/68/70 50/70/50
f 188/188/188 209/209/209 147/146/147 141/147/141
f 209/209/209 188/188/188 182/182/182 204/205/204
f 210/210/210 209/209/209 204/205/204 205/204/205
f 211/211/211 210/210/210 205/204/205 206/206/206
f 212/212/212 211/211/211 206/206/206 207/207/207
f 213/213/213 212/212/212 207/207/207 208/208/208
f 189/190/189 213/213/213 208/208/208 184/185/184
f 214/214/214 150/150/150 147/146/147 209/209/209
f 215/215/215 214/214/214 209/209/209 210/210/210
f 216/216/216 215/215/215 210/210/210 211/211/211
f 217/217/217 216/216/216 211/211/211 212/212/212
f 218/218/218 217/217/217 212/212/212 213/213/213
f 193/194/193 218/218/218 213/213/213 189/190/189
f 220/219/220 219/220/219 217/217/217 218/218/218
f 197/198/197 220/219/220 218/218/218 193/194/193
f 198/197/198 221/221/221 220/219/220 197/198/197
f 224/222/224 223/223/223 220/219/220 221/221/221
f 201/202/201 224/222/224 221/221/221 198/197/198
f 202/201/202 225/224/225 224/222/224 201/202/201
f 203/203/203 226/225/226 225/224/225 202/201/202
f 226/225/226 203/203/203 200/200/200 222/226/222
f 228/227/228 227/228/227 225/224/225 226/225/226
f 214/214/214 229/229/229 158/158/158 150/150/150
f 215/215/215 230/230/230 229/229/229 214/214/214
f 216/216/216 231/231/231 230/230/230 215/215/215
f 217/217/217 232/232/232 231/231/231 216/216/216
f 233/233/233 161/161/161 158/158/158 229/229/229
f 234/234/234 233/233/233 229/229/229 230/230/230
f 235/235/235 234/234/234 230/230/230 231/231/231
f 236/236/236 235/235/235 231/231/231 232/232/232
f 219/220/219 236/236/236 232/232/232 217/217/217
f 220/219/220 237/237/237 236/236/236 219/220/219
f 239/238/239 238/239/238 236/236/236 237/237/237
f 223/223/223 239/238/239 237/237/237 220/219/220
f 224/222/224 240/240/240 239/238/239 223/223/223
f 225/224/225 241/241/241 240/240/240 224/222/224
f 244/242/244 243/243/243 239/238/239 240/240/240
f 245/244/245 244/242/244 240/240/240 241/241/241
f 227/228/227 245/244/245 241/241/241 225/224/225
f 228/227/228 246/245/246 245/244/245 227/228/227
f 246/245/246 228/227/228 226/225/226 242/246/242
f 233/233/233 247/247/247 169/169/169 161/161/161
f 234/234/234 248/248/248 247/247/247 233/233/233
f 235/235/235 249/249/249 248/248/248 234/234/234
f 236/236/236 250/250/250 249/249/249 235/235/235
f 251/251/251 170/181/170 169/169/169 247/247/247
f 252/252/252 251/251/251 247/247/247 248/248/248
f 238/239/238 253/253/253 250/250/250 236/236/236
f 239/238/239 254/254/254 253/253/253 238/239/238
f 243/243/243 255/255/255 254/254/254 239/238/239
f 244/242/244 256/256/256 255/255/255 243/243/243
f 245/244/245 257/257/257 256/256/256 244/242/244
f 246/245/246 258/258/258 257/257/257 245/244/245
f 249/249/249 260/259/260 259/260/259 248/248/248
f 250/250/250 261/261/261 260/259/260 249/249/249
f 251/251/251 262/262/262 181/179/181 170/181/170
f 252/252/252 263/263/263 262/262/262 251/251/251
f 263/263/263 252/252/252 248/248/248 259/260/259
f 253/253/253 264/264/264 261/261/261 250/250/250
f 254/254/254 265/265/265 264/264/264 253/253/253
f 255/255/255 266/266/266 265/265/265 254/254/254
f 256/256/256 267/267/267 266/266/266 255/255/255
f 257/257/257 268/268/268 267/267/267 256/256/256
f 258/258/258 269/269/269 268/268/268 257/257/257
f 270/270/270 187/187/187 53/50/53 116/118/116
f 272/271/272 192/192/192 187/187/187 270/270/270
f 273/272/273 272/271/272 270/270/270 271/273/271
f 274/274/274 196/196/196 192/192/192 272/271/272
f 275/275/275 274/274/274 272/271/272 273/272/273
f 276/276/276 200/200/200 196/196/196 274/274/274
f 277/277/277 270/270/270 116/118/116 119/116/119
f 278/278/278 277/277/277 119/116/119 120/119/120
f 278/278/278 271/273/271 270/270/270 277/277/277
f 279/279/279 278/278/278 120/119/120 121/128/121
f 280/280/280 273/272/273 271/273/271 278/278/278
f 281/281/281 280/280/280 278/278/278 279/279/279
f 275/275/275 283/282/283 282/283/282 274/274/274
f 283/282/283 275/275/275 273/272/273 280/280/280
f 284/284/284 283/282/283 280/280/280 281/281/281
f 276/276/276 285/285/285 222/226/222 200/200/200
f 285/285/285 276/276/276 274/274/274 282/283/282
f 286/286/286 285/285/285 282/283/282 283/282/283
f 287/287/287 286/286/286 283/282/283 284/284/284
f 288/288/288 226/225/226 222/226/222 285/285/285
f 289/289/289 288/288/288 285/285/285 286/286/286
f 290/290/290 279/279/279 121/128/121 128/126/128
f 291/291/291 281/281/281 279/279/279 290/290/290
f 292/292/292 284/284/284 281/281/281 291/291/291
f 287/287/287 294/293/294 293/294/293 286/286/286
f 294/293/294 287/287/287 284/284/284 292/292/292
f 288/288/288 295/295/295 242/246/242 226/225/226
f 289/289/289 296/296/296 295/295/295 288/288/288
f 296/296/296 289/289/289 286/286/286 293/294/293
f 297/297/297 246/245/246 242/246/242 295/295/295
f 298/298/298 290/290/290 128/126/128 133/133/133
f 299/299/299 291/291/291 290/290/290 298/298/298
f 300/300/300 292/292/292 291/291/291 299/299/299
f 294/293/294 302/301/302 301/302/301 293/294/293
f 302/301/302 294/293/294 292/292/292 300/300/300
f 296/296/296 304/303/304 303/304/303 295/295/295
f 304/303/304 296/296/296 293/294/293 301/302/301
f 305/305/305 304/303/304 301/302/301 302/301/302
f 297/297/297 306/306/306 258/258/258 246/245/246
f 306/306/306 297/297/297 295/295/295 303/304/303
f 307/307/307 306/306/306 303/304/303 304/303/304
f 308/308/308 298/298/298 133/133/133 138/138/138
f 309/309/309 299/299/299 298/298/298 308/308/308
f 310/310/310 300/300/300 299/299/299 309/309/309
f 311/311/311 302/301/302 300/300/300 310/310/310
f 305/305/305 314/312/314 313/313/313 304/303/304
f 314/312/314 305/305/305 302/301/302 311/311/311
f 306/306/306 315/314/315 269/269/269 258/258/258
f 315/314/315 316/315/316 313/313/313 312/316/312
f 307/307/307 316/315/316 315/314/315 306/306/306
f 316/315/316 307/307/307 304/303/304 313/313/313
f 318/317/318 34/35/34 33/34/33 317/318/317
f 320/319/320 36/31/36 35/32/35 319/320/319
f 36/31/36 320/319/320 317/318/317 33/34/33
f 322/321/322 39/37/39 38/38/38 321/322/321
f 39/37/39 322/321/322 319/320/319 35/32/35
f 324/323/324 41/39/41 40/42/40 323/324/323
f 41/39/41 324/323/324 321/322/321 38/38/38
f 42/41/42 325/325/325 323/324/323 40/42/40
f 325/325/325 326/326/326 324/323/324 323/324/323
f 328/327/328 318/317/318 317/318/317 327/328/327
f 330/329/330 320/319/320 319/320/319 329/330/329
f 320/319/320 330/329/330 327/328/327 317/318/317
f 330/329/330 331/331/331 328/327/328 327/328/327
f 333/332/333 322/321/322 321/322/321 332/333/332
f 322/321/322 333/332/333 329/330/329 319/320/319
f 324/323/324 334/334/334 332/333/332 321/322/321
f 336/335/336 326/336/326 325/337/325 335/338/335
f 326/336/326 336/335/336 334/334/334 324/323/324
f 338/339/338 330/329/330 329/330/329 337/340/337
f 339/341/339 331/331/331 330/329/330 338/339/338
f 341/342/341 333/332/333 332/333/332 340/343/340
f 333/332/333 341/342/341 337/340/337 329/330/329
f 341/342/341 342/344/342 338/339/338 337/340/337
f 342/344/342 343/345/343 339/341/339 338/339/338
f 334/334/334 344/346/344 340/343/340 332/333/332
f 344/346/344 345/347/345 341/342/341 340/343/340
f 336/335/336 346/348/346 344/346/344 334/334/334
f 346/348/346 347/349/347 345/347/345 344/346/344
f 350/350/350 342/344/342 341/342/341 349/351/349
f 351/352/351 343/345/343 342/344/342 350/350/350
f 343/345/343 351/352/351 348/353/348 339/341/339
f 345/347/345 352/354/352 349/351/349 341/342/341
f 352/354/352 353/355/353 350/350/350 349/351/349
f 353/355/353 354/356/354 351/352/351 350/350/350
f 356/357/356 347/349/347 346/348/346 355/358/355
f 347/349/347 356/357/356 352/354/352 345/347/345
f 356/357/356 357/359/357 353/355/353 352/354/352
f 360/360/360 354/356/354 353/355/353 359/361/359
f 354/356/354 360/360/360 358/362/358 351/352/351
f 357/359/357 361/363/361 359/361/359 353/355/353
f 361/363/361 362/364/362 360/360/360 359/361/359
f 360/360/360 364/365/364 363/366/363 358/362/358
f 362/364/362 365/367/365 364/365/364 360/360/360
f 364/365/364 367/368/367 366/369/366 363/366/363
f 365/367/365 368/370/368 367/368/367 364/365/364
f 368/370/368 370/371/370 369/372/369 367/368/367
f 371/373/371 106/106/106 34/35/34 318/317/318
f 372/374/372 107/107/107 106/106/106 371/373/371
f 373/375/373 374/376/374 372/374/372 371/373/371
f 374/376/374 108/108/108 107/107/107 372/374/372
f 375/377/375 109/109/109 108/108/108 374/376/374
f 376/378/376 110/110/110 109/109/109 375/377/375
f 377/379/377 111/111/111 110/110/110 376/378/376
f 378/380/378 112/112/112 111/111/111 377/379/377
f 379/381/379 113/113/113 112/112/112 378/380/378
f 380/382/380 114/114/114 113/113/113 379/381/379
f 381/383/381 115/115/115 114/114/114 380/382/380
f 382/384/382 371/373/371 318/317/318 328/327/328
f 331/331/331 383/385/383 382/384/382 328/327/328
f 383/385/383 373/375/373 371/373/371 382/384/382
f 384/386/384 374/376/374 373/375/373 383/385/383
f 385/387/385 375/377/375 374/376/374 384/386/384
f 388/388/388 376/378/376 375/377/375 385/387/385
f 389/389/389 388/388/388 385/387/385 386/390/386
f 389/389/389 377/379/377 376/378/376 388/388/388
f 390/391/390 389/389/389 386/390/386 387/392/387
f 390/391/390 378/380/378 377/379/377 389/389/389
f 391/393/391 379/381/379 378/380/378 390/391/390
f 392/394/392 380/382/380 379/381/379 391/393/391
f 393/395/393 381/383/381 380/382/380 392/394/392
f 394/396/394 395/397/395 393/395/393 392/394/392
f 396/398/396 383/385/383 331/331/331 339/341/339
f 397/399/397 384/386/384 383/385/383 396/398/396
f 398/400/398 385/387/385 384/386/384 397/399/397
f 399/401/399 386/390/386 385/387/385 398/400/398
f 400/402/400 387/392/387 386/390/386 399/401/399
f 402/403/402 390/391/390 387/392/387 400/402/400
f 403/404/403 402/403/402 400/402/400 401/405/401
f 403/404/403 391/393/391 390/391/390 402/403/402
f 404/406/404 392/394/392 391/393/391 403/404/403
f 405/407/405 394/396/394 392/394/392 404/406/404
f 406/408/406 395/397/395 394/396/394 405/407/405
f 411/409/411 396/398/396 339/341/339 348/353/348
f 412/410/412 397/399/397 396/398/396 411/409/411
f 413/411/413 398/400/398 397/399/397 412/410/412
f 414/412/414 413/411/413 408/413/408 409/414/409
f 414/412/414 399/401/399 398/400/398 413/411/413
f 415/415/415 414/412/414 409/414/409 410/416/410
f 415/415/415 400/402/400 399/401/399 414/412/414
f 416/417/416 401/405/401 400/402/400 415/415/415
f 351/352/351 418/418/418 411/409/411 348/353/348
f 419/419/419 403/404/403 401/405/401 416/417/416
f 420/420/420 419/419/419 416/417/416 417/421/417
f 420/420/420 404/406/404 403/404/403 419/419/419
f 422/422/422 405/407/405 404/406/404 420/420/420
f 423/423/423 422/422/422 420/420/420 421/424/421
f 423/423/423 406/408/406 405/407/405 422/422/422
f 424/425/424 407/426/407 406/408/406 423/423/423
f 426/427/426 409/414/409 408/413/408 425/428/425
f 427/429/427 410/416/410 409/414/409 426/427/426
f 429/430/429 412/410/412 411/409/411 428/431/428
f 430/432/430 413/411/413 412/410/412 429/430/429
f 413/411/413 430/432/430 425/428/425 408/413/408
f 431/433/431 415/415/415 410/416/410 427/429/427
f 432/434/432 416/417/416 415/415/415 431/433/431
f 433/435/433 417/421/417 416/417/416 432/434/432
f 434/436/434 418/418/418 351/352/351 358/362/358
f 418/418/418 434/436/434 428/431/428 411/409/411
f 435/437/435 420/420/420 417/421/417 433/435/433
f 436/438/436 421/424/421 420/420/420 435/437/435
f 437/439/437 423/423/423 421/424/421 436/438/436
f 438/440/438 424/425/424 423/423/423 437/439/437
f 440/441/440 426/427/426 425/428/425 439/442/439
f 441/443/441 427/429/427 426/427/426 440/441/440
f 443/444/443 429/430/429 428/431/428 442/445/442
f 444/446/444 430/432/430 429/430/429 443/444/443
f 430/432/430 444/446/444 439/442/439 425/428/425
f 445/447/445 446/448/446 441/443/441 440/441/440
f 446/448/446 431/433/431 427/429/427 441/443/441
f 447/449/447 432/434/432 431/433/431 446/448/446
f 448/450/448 433/435/433 432/434/432 447/449/447
f 449/451/449 434/436/434 358/362/358 363/366/363
f 434/436/434 449/451/449 442/445/442 428/431/428
f 450/452/450 435/437/435 433/435/433 448/450/448
f 451/453/451 436/438/436 435/437/435 450/452/450
f 452/454/452 437/439/437 436/438/436 451/453/451
f 453/455/453 438/440/438 437/439/437 452/454/452
f 455/456/455 440/441/440 439/442/439 454/457/454
f 457/458/457 443/444/443 442/445/442 456/459/456
f 458/460/458 444/446/444 443/444/443 457/458/457
f 444/446/444 458/460/458 454/457/454 439/442/439
f 458/460/458 459/461/459 455/456/455 454/457/454
f 459/461/459 445/447/445 440/441/440 455/456/455
f 460/462/460 446/448/446 445/447/445 459/461/459
f 461/463/461 447/449/447 446/448/446 460/462/460
f 462/464/462 448/450/448 447/449/447 461/463/461
f 463/465/463 449/451/449 363/366/363 366/369/366
f 449/451/449 463/465/463 456/459/456 442/445/442
f 463/465/463 464/466/464 457/458/457 456/459/456
f 465/467/465 466/468/466 462/464/462 461/463/461
f 466/468/466 450/452/450 448/450/448 462/464/462
f 467/469/467 451/453/451 450/452/450 466/468/466
f 367/368/367 468/470/468 463/465/463 366/369/366
f 469/471/469 470/472/470 467/469/467 466/468/466
f 470/472/470 452/454/452 451/453/451 467/469/467
f 471/473/471 472/474/472 470/472/470 469/471/469
f 472/474/472 453/455/453 452/454/452 470/472/470
f 474/475/474 458/460/458 457/458/457 473/476/473
f 475/477/475 459/461/459 458/460/458 474/475/474
f 476/478/476 460/462/460 459/461/459 475/477/475
f 477/479/477 461/463/461 460/462/460 476/478/476
f 479/480/479 464/466/464 463/465/463 478/481/478
f 464/466/464 479/480/479 473/476/473 457/458/457
f 479/480/479 480/482/480 474/475/474 473/476/473
f 480/482/480 481/483/481 475/477/475 474/475/474
f 481/483/481 482/484/482 476/478/476 475/477/475
f 482/484/482 483/485/483 477/479/477 476/478/476
f 483/485/483 465/467/465 461/463/461 477/479/477
f 484/486/484 466/468/466 465/467/465 483/485/483
f 485/487/485 468/470/468 367/368/367 369/372/369
f 468/470/468 485/487/485 478/481/478 463/465/463
f 485/487/485 486/488/486 479/480/479 478/481/478
f 487/489/487 488/490/488 484/486/484 483/485/483
f 488/490/488 469/471/469 466/468/466 484/486/484
f 370/371/370 489/491/489 485/487/485 369/372/369
f 489/491/489 490/492/490 486/488/486 485/487/485
f 491/493/491 492/494/492 488/490/488 487/489/487
f 492/494/492 471/473/471 469/471/469 488/490/488
f 493/495/493 472/474/472 471/473/471 492/494/492
f 494/496/494 134/134/134 115/115/115 381/383/381
f 495/497/495 135/135/135 134/134/134 494/496/494
f 496/498/496 497/499/497 495/497/495 494/496/494
f 497/499/497 136/136/136 135/135/135 495/497/495
f 498/500/498 137/137/137 136/136/136 497/499/497
f 499/501/499 500/502/500 498/500/498 497/499/497
f 500/502/500 138/138/138 137/137/137 498/500/498
f 501/503/501 494/496/494 381/383/381 393/395/393
f 395/397/395 502/504/502 501/503/501 393/395/393
f 502/504/502 496/498/496 494/496/494 501/503/501
f 503/505/503 497/499/497 496/498/496 502/504/502
f 504/506/504 505/507/505 503/505/503 502/504/502
f 505/507/505 499/501/499 497/499/497 503/505/503
f 506/508/506 500/502/500 499/501/499 505/507/505
f 507/509/507 502/504/502 395/397/395 406/408/406
f 407/426/407 508/510/508 507/509/507 406/408/406
f 508/510/508 504/506/504 502/504/502 507/509/507
f 509/511/509 505/507/505 504/506/504 508/510/508
f 510/512/510 508/510/508 407/426/407 424/425/424
f 512/513/512 480/482/480 479/480/479 511/514/511
f 513/515/513 481/483/481 480/482/480 512/513/512
f 514/516/514 482/484/482 481/483/481 513/515/513
f 515/517/515 483/485/483 482/484/482 514/516/514
f 486/488/486 516/518/516 511/514/511 479/480/479
f 516/518/516 517/519/517 512/513/512 511/514/511
f 517/519/517 518/520/518 513/515/513 512/513/512
f 518/520/518 519/521/519 514/516/514 513/515/513
f 519/521/519 520/522/520 515/517/515 514/516/514
f 520/522/520 487/489/487 483/485/483 515/517/515
f 522/523/522 490/492/490 489/491/489 521/524/521
f 490/492/490 522/523/522 516/518/516 486/488/486
f 522/523/522 523/525/523 517/519/517 516/518/516
f 523/525/523 524/526/524 518/520/518 517/519/517
f 524/526/524 525/527/525 519/521/519 518/520/518
f 525/527/525 526/528/526 520/522/520 519/521/519
f 526/528/526 491/493/491 487/489/487 520/522/520
f 527/529/527 492/494/492 491/493/491 526/528/526
f 171/170/171 528/530/528 325/325/325 42/41/42
f 173/173/173 530/531/530 528/530/528 171/170/171
f 530/531/530 531/532/531 529/533/529 528/530/528
f 174/172/174 531/532/531 530/531/530 173/173/173
f 175/174/175 532/534/532 531/532/531 174/172/174
f 176/175/176 533/535/533 532/534/532 175/174/175
f 177/176/177 534/536/534 533/535/533 176/175/176
f 178/177/178 535/537/535 534/536/534 177/176/177
f 180/180/180 536/538/536 535/537/535 178/177/178
f 181/179/181 537/539/537 536/538/536 180/180/180
f 528/530/528 538/540/538 335/541/335 325/325/325
f 538/542/538 539/543/539 336/335/336 335/338/335
f 529/544/529 539/543/539 538/542/538 528/545/528
f 531/546/531 540/547/540 539/543/539 529/544/529
f 532/548/532 541/549/541 540/547/540 531/546/531
f 533/550/533 542/551/542 541/549/541 532/548/532
f 534/552/534 543/553/543 542/551/542 533/550/533
f 535/554/535 544/555/544 543/553/543 534/552/534
f 536/556/536 546/557/546 544/555/544 535/554/535
f 546/557/546 547/558/547 545/559/545 544/555/544
f 537/560/537 547/558/547 546/557/546 536/556/536
f 539/543/539 548/561/548 346/348/346 336/335/336
f 540/547/540 550/562/550 548/561/548 539/543/539
f 550/562/550 551/563/551 549/564/549 548/561/548
f 541/549/541 552/565/552 550/562/550 540/547/540
f 552/565/552 553/566/553 551/563/551 550/562/550
f 542/551/542 553/566/553 552/565/552 541/549/541
f 543/553/543 556/567/556 553/566/553 542/551/542
f 556/567/556 557/568/557 554/569/554 553/566/553
f 544/555/544 557/568/557 556/567/556 543/553/543
f 557/568/557 558/570/558 555/571/555 554/569/554
f 545/559/545 558/570/558 557/568/557 544/555/544
f 548/561/548 559/572/559 355/358/355 346/348/346
f 559/572/559 560/573/560 356/357/356 355/358/355
f 549/564/549 560/573/560 559/572/559 548/561/548
f 560/573/560 561/574/561 357/359/357 356/357/356
f 551/563/551 562/575/562 560/573/560 549/564/549
f 562/575/562 563/576/563 561/574/561 560/573/560
f 553/566/553 565/577/565 562/575/562 551/563/551
f 565/577/565 566/578/566 563/576/563 562/575/562
f 554/569/554 566/578/566 565/577/565 553/566/553
f 566/578/566 567/579/567 564/580/564 563/576/563
f 555/571/555 567/579/567 566/578/566 554/569/554
f 558/570/558 568/581/568 567/579/567 555/571/555
f 561/574/561 569/582/569 361/363/361 357/359/357
f 569/582/569 570/583/570 362/364/362 361/363/361
f 563/576/563 571/584/571 569/582/569 561/574/561
f 571/584/571 572/585/572 570/583/570 569/582/569
f 564/580/564 572/585/572 571/584/571 563/576/563
f 567/579/567 573/586/573 572/585/572 564/580/564
f 570/583/570 574/587/574 365/367/365 362/364/362
f 572/585/572 575/588/575 574/587/574 570/583/570
f 573/586/573 576/589/576 575/588/575 572/585/572
f 574/587/574 577/590/577 368/370/368 365/367/365
f 575/588/575 578/591/578 577/590/577 574/587/574
f 576/589/576 579/592/579 578/591/578 575/588/575
f 577/590/577 580/593/580 370/371/370 368/370/368
f 578/591/578 581/594/581 580/593/580 577/590/577
f 260/259/260 584/595/584 583/596/583 259/260/259
f 261/261/261 585/597/585 584/595/584 260/259/260
f 262/262/262 586/598/586 537/539/537 181/179/181
f 586/598/586 587/599/587 583/596/583 582/600/582
f 263/263/263 587/599/587 586/598/586 262/262/262
f 587/599/587 263/263/263 259/260/259 583/596/583
f 264/264/264 588/601/588 585/597/585 261/261/261
f 265/265/265 589/602/589 588/601/588 264/264/264
f 266/266/266 591/603/591 589/602/589 265/265/265
f 591/603/591 592/604/592 590/605/590 589/602/589
f 267/267/267 592/604/592 591/603/591 266/266/266
f 268/268/268 593/606/593 592/604/592 267/267/267
f 269/269/269 594/607/594 593/606/593 268/268/268
f 583/608/583 596/609/596 595/610/595 582/611/582
f 584/612/584 597/613/597 596/609/596 583/608/583
f 585/614/585 598/615/598 597/613/597 584/612/584
f 547/558/547 600/616/600 595/610/595 545/559/545
f 586/617/586 600/616/600 547/558/547 537/560/537
f 600/616/600 586/617/586 582/611/582 595/610/595
f 588/618/588 601/619/601 598/615/598 585/614/585
f 601/619/601 602/620/602 599/621/599 598/615/598
f 589/622/589 602/620/602 601/619/601 588/618/588
f 590/623/590 603/624/603 602/620/602 589/622/589
f 592/625/592 606/626/606 603/624/603 590/623/590
f 606/626/606 607/627/607 604/628/604 603/624/603
f 593/629/593 607/627/607 606/626/606 592/625/592
f 607/627/607 608/630/608 605/631/605 604/628/604
f 594/632/594 608/630/608 607/627/607 593/629/593
f 595/610/595 610/633/610 558/570/558 545/559/545
f 596/609/596 611/634/611 610/633/610 595/610/595
f 597/613/597 612/635/612 611/634/611 596/609/596
f 598/615/598 613/636/613 612/635/612 597/613/597
f 599/621/599 614/637/614 613/636/613 598/615/598
f 602/620/602 618/638/618 614/637/614 599/621/599
f 618/638/618 619/639/619 615/640/615 614/637/614
f 603/624/603 619/639/619 618/638/618 602/620/602
f 619/639/619 620/641/620 616/642/616 615/640/615
f 604/628/604 620/641/620 619/639/619 603/624/603
f 620/641/620 621/643/621 617/644/617 616/642/616
f 605/631/605 621/643/621 620/641/620 604/628/604
f 568/581/568 627/645/627 624/646/624 567/579/567
f 610/633/610 627/645/627 568/581/568 558/570/558
f 611/634/611 628/647/628 627/645/627 610/633/610
f 612/635/612 629/648/629 628/647/628 611/634/611
f 613/636/613 630/649/630 629/648/629 612/635/612
f 614/637/614 631/650/631 630/649/630 613/636/613
f 615/640/615 632/651/632 631/650/631 614/637/614
f 616/642/616 633/652/633 632/651/632 615/640/615
f 633/652/633 634/653/634 626/654/626 625/655/625
f 617/644/617 634/653/634 633/652/633 616/642/616
f 634/653/634 617/644/617 609/656/609 626/654/626
f 636/657/636 635/658/635 629/648/629 630/649/630
f 637/659/637 636/657/636 630/649/630 631/650/631
f 638/660/638 622/661/622 424/425/424 438/440/438
f 639/662/639 623/663/623 622/661/622 638/660/638
f 624/646/624 640/664/640 573/586/573 567/579/567
f 626/654/626 642/665/642 641/666/641 625/655/625
f 642/665/642 626/654/626 623/663/623 639/662/639
f 627/645/627 643/667/643 640/664/640 624/646/624
f 628/647/628 644/668/644 643/667/643 627/645/627
f 629/648/629 645/669/645 644/668/644 628/647/628
f 632/651/632 647/670/647 646/671/646 631/650/631
f 633/652/633 648/672/648 647/670/647 632/651/632
f 648/672/648 633/652/633 625/655/625 641/666/641
f 635/658/635 649/673/649 645/669/645 629/648/629
f 636/657/636 650/674/650 649/673/649 635/658/635
f 637/659/637 651/675/651 650/674/650 636/657/636
f 651/675/651 637/659/637 631/650/631 646/671/646
f 652/676/652 638/660/638 438/440/438 453/455/453
f 653/677/653 639/662/639 638/660/638 652/676/652
f 640/664/640 654/678/654 576/589/576 573/586/573
f 642/665/642 656/679/656 655/680/655 641/666/641
f 656/679/656 642/665/642 639/662/639 653/677/653
f 643/667/643 657/681/657 654/678/654 640/664/640
f 644/668/644 658/682/658 657/681/657 643/667/643
f 645/669/645 659/683/659 658/682/658 644/668/644
f 647/670/647 662/684/662 661/685/661 646/671/646
f 648/672/648 663/686/663 662/684/662 647/670/647
f 663/686/663 648/672/648 641/666/641 655/680/655
f 649/673/649 664/687/664 659/683/659 645/669/645
f 650/674/650 665/688/665 664/687/664 649/673/649
f 665/688/665 666/689/666 661/685/661 660/690/660
f 651/675/651 666/689/666 665/688/665 650/674/650
f 666/689/666 651/675/651 646/671/646 661/685/661
f 668/691/668 652/676/652 453/455/453 472/474/472
f 670/692/670 671/693/671 668/691/668 667/694/667
f 671/693/671 653/677/653 652/676/652 668/691/668
f 579/592/579 672/695/672 669/696/669 578/591/578
f 654/678/654 672/695/672 579/592/579 576/589/576
f 675/697/675 676/698/676 671/693/671 670/692/670
f 656/679/656 676/698/676 675/697/675 655/680/655
f 676/698/676 656/679/656 653/677/653 671/693/671
f 657/681/657 677/699/677 672/695/672 654/678/654
f 677/699/677 678/700/678 673/701/673 672/695/672
f 658/682/658 678/700/678 677/699/677 657/681/657
f 659/683/659 679/702/679 678/700/678 658/682/658
f 661/685/661 681/703/681 680/704/680 660/690/660
f 662/684/662 682/705/682 681/703/681 661/685/661
f 682/705/682 683/706/683 675/697/675 674/707/674
f 663/686/663 683/706/683 682/705/682 662/684/662
f 683/706/683 663/686/663 655/680/655 675/697/675
f 664/687/664 684/708/684 679/702/679 659/683/659
f 684/708/684 685/709/685 680/704/680 679/702/679
f 665/688/665 685/709/685 684/708/684 664/687/664
f 685/709/685 665/688/665 660/690/660 680/704/680
f 580/593/580 686/710/686 489/491/489 370/371/370
f 689/711/689 690/712/690 493/495/493 492/494/492
f 668/691/668 690/712/690 689/711/689 667/694/667
f 690/712/690 668/691/668 472/474/472 493/495/493
f 581/594/581 691/713/691 686/710/686 580/593/580
f 669/696/669 691/713/691 581/594/581 578/591/578
f 691/713/691 692/714/692 687/715/687 686/710/686
f 693/716/693 694/717/694 689/711/689 688/718/688
f 694/717/694 670/692/670 667/694/667 689/711/689
f 672/695/672 695/719/695 691/713/691 669/696/669
f 695/719/695 696/720/696 692/714/692 691/713/691
f 673/701/673 696/720/696 695/719/695 672/695/672
f 700/721/700 701/722/701 694/717/694 693/716/693
f 675/697/675 701/722/701 700/721/700 674/707/674
f 701/722/701 675/697/675 670/692/670 694/717/694
f 678/700/678 702/723/702 696/720/696 673/701/673
f 702/723/702 703/724/703 697/725/697 696/720/696
f 679/702/679 703/724/703 702/723/702 678/700/678
f 703/724/703 704/726/704 698/727/698 697/725/697
f 680/704/680 704/726/704 703/724/703 679/702/679
f 704/726/704 705/728/705 699/729/699 698/727/698
f 681/703/681 705/728/705 704/726/704 680/704/680
f 705/728/705 706/730/706 700/721/700 699/729/699
f 682/705/682 706/730/706 705/728/705 681/703/681
f 706/730/706 682/705/682 674/707/674 700/721/700
f 707/731/707 308/308/308 138/138/138 500/502/500
f 708/732/708 309/309/309 308/308/308 707/731/707
f 709/733/709 310/310/310 309/309/309 708/732/708
f 711/734/711 311/311/311 310/310/310 709/733/709
f 313/313/313 713/735/713 712/736/712 312/316/312
f 713/735/713 714/737/714 711/734/711 710/738/710
f 314/312/314 714/737/714 713/735/713 313/313/313
f 714/737/714 314/312/314 311/311/311 711/734/711
f 315/314/315 715/739/715 594/607/594 269/269/269
f 715/739/715 315/314/315 312/316/312 712/736/712
f 716/740/716 717/741/717 506/508/506 505/507/505
f 717/741/717 707/731/707 500/502/500 506/508/506
f 718/742/718 719/743/719 717/741/717 716/740/716
f 719/743/719 708/732/708 707/731/707 717/741/717
f 720/744/720 721/745/721 719/743/719 718/742/718
f 721/745/721 709/746/709 708/732/708 719/743/719
f 723/747/723 724/748/724 721/745/721 720/744/720
f 711/749/711 724/748/724 723/747/723 710/750/710
f 724/748/724 711/749/711 709/746/709 721/745/721
f 725/751/725 726/752/726 723/747/723 722/753/722
f 713/754/713 726/752/726 725/751/725 712/755/712
f 726/752/726 713/754/713 710/750/710 723/747/723
f 608/630/608 727/756/727 725/751/725 605/631/605
f 715/757/715 727/756/727 608/630/608 594/632/594
f 727/756/727 715/757/715 712/755/712 725/751/725
f 728/758/728 729/759/729 509/511/509 508/510/508
f 729/759/729 716/740/716 505/507/505 509/511/509
f 730/760/730 731/761/731 729/759/729 728/758/728
f 731/761/731 718/742/718 716/740/716 729/759/729
f 732/762/732 733/763/733 731/761/731 730/760/730
f 733/763/733 720/744/720 718/742/718 731/761/731
f 617/644/617 734/764/734 732/762/732 609/656/609
f 734/764/734 735/765/735 733/763/733 732/762/732
f 723/747/723 735/765/735 734/764/734 722/753/722
f 735/765/735 723/747/723 720/744/720 733/763/733
f 621/643/621 736/766/736 734/764/734 617/644/617
f 725/751/725 736/766/736 621/643/621 605/631/605
f 736/766/736 725/751/725 722/753/722 734/764/734
f 622/661/622 737/767/737 510/512/510 424/425/424
f 737/767/737 728/758/728 508/510/508 510/512/510
f 623/663/623 738/768/738 737/767/737 622/661/622
f 738/768/738 730/760/730 728/758/728 737/767/737
f 626/654/626 739/769/739 738/768/738 623/663/623
f 732/762/732 739/769/739 626/654/626 609/656/609
f 739/769/739 732/762/732 730/760/730 738/768/738
f 686/710/686 740/770/740 521/524/521 489/491/489
f 740/770/740 741/771/741 522/523/522 521/524/521
f 687/715/687 741/771/741 740/770/740 686/710/686
f 741/771/741 742/772/742 523/525/523 522/523/522
f 742/772/742 743/773/743 524/526/524 523/525/523
f 743/773/743 744/774/744 525/527/525 524/526/524
f 744/774/744 745/775/745 526/528/526 525/527/525
f 745/775/745 746/776/746 527/529/527 526/528/526
f 689/711/689 746/776/746 745/775/745 688/718/688
f 746/776/746 689/711/689 492/494/492 527/529/527
f 692/714/692 747/777/747 741/771/741 687/715/687
f 747/777/747 748/778/748 742/772/742 741/771/741
f 748/778/748 749/779/749 743/773/743 742/772/742
f 749/779/749 750/780/750 744/774/744 743/773/743
f 750/780/750 751/781/751 745/775/745 744/774/744
f 751/781/751 693/716/693 688/718/688 745/775/745
f 696/720/696 752/782/752 747/777/747 692/714/692
f 752/782/752 753/783/753 748/778/748 747/777/747
f 697/725/697 753/783/753 752/782/752 696/720/696
f 753/783/753 754/784/754 749/779/749 748/778/748
f 698/727/698 754/784/754 753/783/753 697/725/697
f 754/784/754 755/785/755 750/780/750 749/779/749
f 699/729/699 755/785/755 754/784/754 698/727/698
f 755/785/755 756/786/756 751/781/751 750/780/750
f 700/721/700 756/786/756 755/785/755 699/729/699
f 756/786/756 700/721/700 693/716/693 751/781/751
